<svg width="560" height="240" viewBox="0 0 442 182" fill="none" xmlns="http://www.w3.org/2000/svg">
<rect width="440" height="180" transform="translate(1 1)" fill="white"/>
<rect width="160" height="30" transform="translate(1 1)" fill="white"/>
<path d="M1 1H161V31H1V1Z" fill="#D9D9D9" stroke="#707070"/>
<path d="M78.9414 14.5859H76.0469V15.6055H80.1719V16.8125H70.4453V15.6055H74.5469V14.5859H71.6523V10.8359H78.9414V14.5859ZM73.1172 13.4141H77.4766V11.9961H73.1172V13.4141ZM78.9883 21.0781H77.5V18.7695H71.5234V17.5977H78.9883V21.0781ZM86.9688 12.1953H84.8477C84.8516 12.6289 84.9414 13.0488 85.1172 13.4551C85.2969 13.8613 85.5684 14.2266 85.9316 14.5508C86.2988 14.8711 86.7539 15.1211 87.2969 15.3008L86.5586 16.4492C85.9844 16.2656 85.4902 15.9922 85.0762 15.6289C84.666 15.2656 84.3418 14.8359 84.1035 14.3398C83.8574 14.8945 83.5176 15.373 83.084 15.7754C82.6504 16.1777 82.1289 16.4766 81.5195 16.6719L80.7578 15.4883C81.3203 15.3086 81.793 15.0469 82.1758 14.7031C82.5586 14.3594 82.8438 13.9707 83.0312 13.5371C83.2188 13.1035 83.3164 12.6562 83.3242 12.1953H81.1797V11.0117H86.9688V12.1953ZM89.8047 21.0781H88.3164V18.4297H82.4805V17.2344H89.8047V21.0781ZM89.8047 16.7656H88.3164V14.1992H86.6641V12.9805H88.3164V10.4141H89.8047V16.7656Z" fill="black"/>
<rect width="140" height="30" transform="translate(161 1)" fill="white"/>
<rect x="161" y="1" width="140" height="30" fill="#D9D9D9" stroke="#707070"/>
<path d="M228.906 13.1445H230.348V14.3867H228.906V17.1875H227.406V10.4141H228.906V13.1445ZM225.426 17.2812C226.152 17.2812 226.787 17.3574 227.33 17.5098C227.873 17.6621 228.291 17.8828 228.584 18.1719C228.877 18.457 229.023 18.7969 229.023 19.1914C229.023 19.5781 228.875 19.9121 228.578 20.1934C228.285 20.4785 227.867 20.6973 227.324 20.8496C226.785 21.002 226.152 21.0781 225.426 21.0781C224.684 21.0781 224.041 21.002 223.498 20.8496C222.955 20.6973 222.537 20.4785 222.244 20.1934C221.955 19.9121 221.812 19.5781 221.816 19.1914C221.812 18.7969 221.955 18.457 222.244 18.1719C222.537 17.8828 222.955 17.6621 223.498 17.5098C224.041 17.3574 224.684 17.2812 225.426 17.2812ZM225.426 18.418C223.992 18.418 223.281 18.6758 223.293 19.1914C223.289 19.4414 223.469 19.6328 223.832 19.7656C224.195 19.8984 224.727 19.9648 225.426 19.9648C226.105 19.9648 226.625 19.8984 226.984 19.7656C227.344 19.6328 227.523 19.4414 227.523 19.1914C227.523 18.6758 226.824 18.418 225.426 18.418ZM226.773 12.5938H220.445V11.4336H222.871V10.3555H224.359V11.4336H226.773V12.5938ZM223.609 12.957C224.121 12.957 224.574 13.0391 224.969 13.2031C225.367 13.3633 225.678 13.5898 225.9 13.8828C226.123 14.1719 226.234 14.5039 226.234 14.8789C226.234 15.2578 226.123 15.5918 225.9 15.8809C225.682 16.1699 225.373 16.3945 224.975 16.5547C224.576 16.7109 224.121 16.7891 223.609 16.7891C223.09 16.7891 222.629 16.7109 222.227 16.5547C221.828 16.3945 221.518 16.1699 221.295 15.8809C221.072 15.5918 220.961 15.2578 220.961 14.8789C220.961 14.5039 221.072 14.1719 221.295 13.8828C221.518 13.5898 221.83 13.3633 222.232 13.2031C222.635 13.0391 223.094 12.957 223.609 12.957ZM223.609 14.0469C223.242 14.0469 222.951 14.1191 222.736 14.2637C222.525 14.4082 222.422 14.6133 222.426 14.8789C222.422 15.1367 222.527 15.3359 222.742 15.4766C222.957 15.6172 223.246 15.6836 223.609 15.6758C223.977 15.6836 224.27 15.6172 224.488 15.4766C224.707 15.3359 224.816 15.1367 224.816 14.8789C224.816 14.6133 224.707 14.4082 224.488 14.2637C224.27 14.1191 223.977 14.0469 223.609 14.0469ZM239.312 14.5859H236.418V15.6055H240.543V16.8125H230.816V15.6055H234.918V14.5859H232.023V10.8359H239.312V14.5859ZM233.488 13.4141H237.848V11.9961H233.488V13.4141ZM239.359 21.0781H237.871V18.7695H231.895V17.5977H239.359V21.0781Z" fill="black"/>
<rect width="140" height="30" transform="translate(301 1)" fill="white"/>
<path d="M301 1H441V31H301V1Z" fill="#D9D9D9" stroke="#707070"/>
<path d="M341.514 19.8359H331.752V18.6172H335.865V16.6484H332.783V11.0938H334.283V12.7461H338.936V11.0938H340.424V16.6484H337.354V18.6172H341.514V19.8359ZM338.936 15.4531V13.9414H334.283V15.4531H338.936ZM351.873 17.5508H349.588V21.0781H348.064V17.5508H345.885V21.0781H344.35V17.5508H342.111V16.3438H351.873V17.5508ZM346.963 10.7656C347.721 10.7656 348.393 10.8652 348.979 11.0645C349.568 11.2637 350.027 11.5469 350.355 11.9141C350.688 12.2773 350.854 12.6992 350.854 13.1797C350.854 13.6523 350.689 14.0664 350.361 14.4219C350.033 14.7734 349.574 15.0449 348.984 15.2363C348.395 15.4277 347.721 15.5234 346.963 15.5234C346.205 15.5234 345.531 15.4277 344.941 15.2363C344.355 15.0449 343.9 14.7734 343.576 14.4219C343.252 14.0664 343.092 13.6523 343.096 13.1797C343.092 12.6992 343.252 12.2773 343.576 11.9141C343.904 11.5469 344.361 11.2637 344.947 11.0645C345.533 10.8652 346.205 10.7656 346.963 10.7656ZM346.963 11.9609C346.486 11.9609 346.072 12.0078 345.721 12.1016C345.369 12.1953 345.098 12.334 344.906 12.5176C344.719 12.7012 344.627 12.9219 344.631 13.1797C344.627 13.4258 344.719 13.6367 344.906 13.8125C345.098 13.9883 345.369 14.123 345.721 14.2168C346.072 14.3066 346.486 14.3516 346.963 14.3516C347.443 14.3516 347.859 14.3066 348.211 14.2168C348.562 14.123 348.832 13.9883 349.02 13.8125C349.211 13.6367 349.307 13.4258 349.307 13.1797C349.307 12.793 349.098 12.4941 348.68 12.2832C348.266 12.0684 347.693 11.9609 346.963 11.9609ZM361.014 15.5469H355.799V11.0586H361.014V15.5469ZM357.275 14.375H359.525V12.2188H357.275V14.375ZM364.178 16.4609H362.689V10.4141H364.178V16.4609ZM364.365 18.1602H361.377C361.436 18.4141 361.602 18.6641 361.875 18.9102C362.152 19.1562 362.537 19.3711 363.029 19.5547C363.525 19.7383 364.107 19.8633 364.775 19.9297L364.271 21.0547C363.412 20.9766 362.666 20.791 362.033 20.498C361.404 20.2051 360.922 19.8418 360.586 19.4082C360.25 19.8457 359.766 20.209 359.133 20.498C358.5 20.7871 357.748 20.9727 356.877 21.0547L356.361 19.9297C357.041 19.875 357.629 19.7578 358.125 19.5781C358.621 19.3945 359.008 19.1777 359.285 18.9277C359.562 18.6777 359.729 18.4219 359.783 18.1602H356.795V17.0469H359.83V16.168H361.33V17.0469H364.365V18.1602ZM377.326 21.1016H375.814V10.4141H377.326V21.1016ZM371.537 11.1641C372.072 11.1641 372.551 11.3203 372.973 11.6328C373.398 11.9453 373.732 12.3887 373.975 12.9629C374.217 13.5371 374.338 14.2031 374.338 14.9609C374.338 15.7266 374.217 16.3984 373.975 16.9766C373.732 17.5508 373.398 17.9941 372.973 18.3066C372.551 18.6152 372.072 18.7695 371.537 18.7695C370.99 18.7695 370.502 18.6152 370.072 18.3066C369.643 17.9941 369.307 17.5508 369.064 16.9766C368.826 16.3984 368.709 15.7266 368.713 14.9609C368.709 14.2031 368.826 13.5371 369.064 12.9629C369.307 12.3887 369.643 11.9453 370.072 11.6328C370.502 11.3203 370.99 11.1641 371.537 11.1641ZM371.537 12.5117C371.26 12.5117 371.016 12.6074 370.805 12.7988C370.598 12.9863 370.438 13.2637 370.324 13.6309C370.211 13.998 370.154 14.4414 370.154 14.9609C370.154 15.4844 370.211 15.9297 370.324 16.2969C370.438 16.6641 370.598 16.9414 370.805 17.1289C371.016 17.3164 371.26 17.4102 371.537 17.4102C371.811 17.4102 372.049 17.3164 372.252 17.1289C372.455 16.9375 372.613 16.6582 372.727 16.291C372.84 15.9238 372.896 15.4805 372.896 14.9609C372.896 14.4453 372.84 14.0039 372.727 13.6367C372.613 13.2656 372.453 12.9863 372.246 12.7988C372.043 12.6074 371.807 12.5117 371.537 12.5117ZM388.494 16.6602H378.768V15.4648H380.959V14.1875C380.564 14.0117 380.262 13.793 380.051 13.5312C379.844 13.2695 379.74 12.9688 379.74 12.6289C379.74 12.2031 379.898 11.8359 380.215 11.5273C380.531 11.2148 380.982 10.9766 381.568 10.8125C382.154 10.6484 382.842 10.5664 383.631 10.5664C384.412 10.5664 385.094 10.6484 385.676 10.8125C386.258 10.9766 386.707 11.2148 387.023 11.5273C387.344 11.8359 387.506 12.2031 387.51 12.6289C387.506 12.9688 387.396 13.2734 387.182 13.543C386.967 13.8086 386.658 14.0273 386.256 14.1992V15.4648H388.494V16.6602ZM383.619 17.2227C384.389 17.2227 385.051 17.2969 385.605 17.4453C386.16 17.5938 386.586 17.8105 386.883 18.0957C387.18 18.3809 387.33 18.7266 387.334 19.1328C387.33 19.5469 387.18 19.8984 386.883 20.1875C386.586 20.4766 386.16 20.6953 385.605 20.8438C385.051 20.9922 384.389 21.0664 383.619 21.0664C382.838 21.0664 382.168 20.9922 381.609 20.8438C381.051 20.6953 380.623 20.4766 380.326 20.1875C380.029 19.8984 379.881 19.5469 379.881 19.1328C379.881 18.7266 380.029 18.3809 380.326 18.0957C380.623 17.8105 381.051 17.5938 381.609 17.4453C382.168 17.2969 382.838 17.2227 383.619 17.2227ZM383.619 18.3477C382.131 18.3477 381.393 18.6094 381.404 19.1328C381.393 19.6797 382.131 19.9531 383.619 19.9531C385.084 19.9531 385.822 19.6797 385.834 19.1328C385.822 18.6094 385.084 18.3477 383.619 18.3477ZM383.631 11.7148C382.873 11.7148 382.293 11.793 381.891 11.9492C381.492 12.1055 381.295 12.332 381.299 12.6289C381.295 12.918 381.492 13.1367 381.891 13.2852C382.289 13.4336 382.869 13.5078 383.631 13.5078C384.385 13.5078 384.961 13.4336 385.359 13.2852C385.762 13.1367 385.963 12.918 385.963 12.6289C385.963 12.332 385.762 12.1055 385.359 11.9492C384.957 11.793 384.381 11.7148 383.631 11.7148ZM384.768 15.4648V14.5742C384.432 14.6133 384.053 14.6328 383.631 14.6328C383.186 14.6328 382.799 14.6113 382.471 14.5684V15.4648H384.768ZM398.104 21.0781H396.592V10.4141H398.104V21.0781ZM394.904 11.5273C394.904 12.668 394.75 13.7051 394.441 14.6387C394.137 15.5723 393.621 16.4297 392.895 17.2109C392.168 17.9883 391.189 18.668 389.959 19.25L389.174 18.0547C390.084 17.625 390.834 17.1465 391.424 16.6191C392.018 16.0918 392.471 15.5078 392.783 14.8672C393.1 14.2227 393.299 13.5 393.381 12.6992H389.748V11.5273H394.904ZM407.971 13.4023H409.412V14.6328H407.971V18.0547H406.459V10.4141H407.971V13.4023ZM405.064 11.2109C405.064 12.1641 404.869 13.0234 404.479 13.7891C404.092 14.5508 403.525 15.2031 402.779 15.7461C402.033 16.2891 401.127 16.7109 400.061 17.0117L399.439 15.8281C400.615 15.5 401.541 15.041 402.217 14.4512C402.896 13.8613 403.297 13.1875 403.418 12.4297H399.908V11.2109H405.064ZM408.334 20.8906H401.033V17.2695H402.545V19.6953H408.334V20.8906Z" fill="black"/>
<rect width="160" height="150" transform="translate(1 31)" fill="white"/>
<path d="M1 31H161V181H1V31Z" fill="white" stroke="#707070"/>
<path d="M25.1934 46.9531V48.2773H30.3496V46.9531H31.2637V51.1133H28.2168V52.2266H32.5059V52.9883H23.0137V52.2266H27.3027V51.1133H24.2793V46.9531H25.1934ZM25.1934 50.375H30.3496V49.0039H25.1934V50.375ZM31.4512 55.9531V56.7266H24.2441V53.8203H25.1699V55.9531H31.4512ZM41.9863 46.543V54.1602H41.0723V46.543H41.9863ZM42.3145 55.9531V56.7266H35.2598V53.3867H36.1738V55.9531H42.3145ZM36.3613 47.2695C37.9199 47.2695 39.0918 48.3242 39.0918 49.8242C39.0918 51.3477 37.9199 52.3906 36.3613 52.3906C34.8027 52.3906 33.6309 51.3477 33.6309 49.8242C33.6309 48.3242 34.8027 47.2695 36.3613 47.2695ZM36.3613 48.0781C35.3066 48.0781 34.5215 48.8047 34.5332 49.8242C34.5215 50.8672 35.3066 51.582 36.3613 51.582C37.3926 51.582 38.1895 50.8672 38.1895 49.8242C38.1895 48.8047 37.3926 48.0781 36.3613 48.0781ZM46.5566 47.3398C47.5117 47.3457 48.2852 47.9023 48.7363 48.8633H51.4785V46.5312H52.3926V56.9727H51.4785V52.9297H48.8066C48.3672 53.9844 47.5645 54.5938 46.5566 54.5938C45.0215 54.5938 43.9434 53.1875 43.9434 50.9727C43.9434 48.7578 45.0215 47.3516 46.5566 47.3398ZM46.5566 48.1602C45.5254 48.1719 44.8223 49.2734 44.8223 50.9727C44.8223 52.6719 45.5254 53.7734 46.5566 53.7734C47.5762 53.7734 48.291 52.6719 48.291 50.9727C48.291 49.2734 47.5762 48.1719 46.5566 48.1602ZM49.0059 49.6367C49.0996 50.041 49.1582 50.4863 49.1582 50.9727C49.1582 51.4004 49.1113 51.8047 49.041 52.168H51.4785V49.6367H49.0059ZM63.6543 52.7188V53.4688H59.3066V56.9492H58.4043V53.4688H54.1152V52.7188H63.6543ZM56.248 46.9648V48.4062H61.498V46.9648H62.4238V51.4531H55.334V46.9648H56.248ZM56.248 50.7031H61.498V49.1562H56.248V50.7031ZM75.6426 46.543V49.6953H77.2012V50.4688H75.6426V53.5273H74.7168V46.543H75.6426ZM67.4629 52.4609C68.2949 52.4609 69.2676 52.4609 70.2871 52.4258V51.6641C69.0742 51.5586 68.2949 50.9902 68.2949 50.1289C68.2949 49.1797 69.2676 48.5938 70.7324 48.5938C72.209 48.5938 73.1699 49.1797 73.1816 50.1289C73.1699 50.9844 72.4082 51.5527 71.2012 51.6641V52.3906C72.1738 52.3438 73.1582 52.2676 74.0723 52.1328L74.1543 52.8008C71.8926 53.1992 69.3965 53.2109 67.5684 53.2109L67.4629 52.4609ZM75.6426 54.043V56.9492H74.7168V54.7812H68.7402V54.043H75.6426ZM73.7559 47.4922V48.1953H67.7207V47.4922H70.2871V46.4492H71.2012V47.4922H73.7559ZM70.7324 49.25C69.7715 49.2383 69.1738 49.5781 69.1738 50.1289C69.1738 50.668 69.7715 51.043 70.7324 51.0312C71.6934 51.043 72.3027 50.668 72.3027 50.1289C72.3027 49.5781 71.6934 49.2383 70.7324 49.25ZM86.4824 46.543V54.1602H85.5684V46.543H86.4824ZM86.8105 55.9531V56.7266H79.7559V53.3867H80.6699V55.9531H86.8105ZM80.8574 47.2695C82.416 47.2695 83.5879 48.3242 83.5879 49.8242C83.5879 51.3477 82.416 52.3906 80.8574 52.3906C79.2988 52.3906 78.127 51.3477 78.127 49.8242C78.127 48.3242 79.2988 47.2695 80.8574 47.2695ZM80.8574 48.0781C79.8027 48.0781 79.0176 48.8047 79.0293 49.8242C79.0176 50.8672 79.8027 51.582 80.8574 51.582C81.8887 51.582 82.6855 50.8672 82.6855 49.8242C82.6855 48.8047 81.8887 48.0781 80.8574 48.0781ZM89.9629 55.2148L89.0488 58.4023H88.1816L88.8262 55.2148H89.9629ZM102.479 46.5312V49.1797H104.049V49.9648H102.479V52.6484H101.564V46.5312H102.479ZM99.6191 47.1992C99.6191 49.8359 97.7793 51.7109 94.6973 52.5312L94.3223 51.8164C96.877 51.125 98.4531 49.7305 98.6465 47.9609H94.791V47.1992H99.6191ZM102.479 53.1289V56.9492H101.564V53.8789H95.6582V53.1289H102.479ZM109.896 50.2344V51.7227H114.197V52.4844H104.705V51.7227H108.994V50.2344H109.896ZM109.451 53.3398C111.689 53.3398 113.025 53.9727 113.037 55.1328C113.025 56.293 111.689 56.9258 109.451 56.9258C107.189 56.9258 105.854 56.293 105.854 55.1328C105.854 53.9727 107.189 53.3398 109.451 53.3398ZM109.451 54.0664C107.764 54.0664 106.779 54.4531 106.791 55.1328C106.779 55.8125 107.764 56.2109 109.451 56.2109C111.115 56.2109 112.111 55.8125 112.111 55.1328C112.111 54.4531 111.115 54.0664 109.451 54.0664ZM113.354 47.0234V47.7734H110.049C110.107 48.9336 111.854 49.8301 113.67 50.0234L113.33 50.75C111.625 50.5449 110.025 49.8008 109.451 48.6406C108.883 49.8008 107.289 50.5449 105.572 50.75L105.232 50.0234C107.049 49.8301 108.783 48.9453 108.854 47.7734H105.572V47.0234H113.354ZM123.35 47.2461V51.6992H118.533V47.2461H123.35ZM119.436 47.9961V50.9492H122.459V47.9961H119.436ZM126.232 46.5312V49.0391H127.803V49.8125H126.232V52.4844H125.318V46.5312H126.232ZM126.42 53.0938V53.8438H123.467C123.566 54.957 125.119 55.9297 126.818 56.1992L126.479 56.9141C124.955 56.6621 123.572 55.9062 122.975 54.8633C122.383 55.9121 121.012 56.6562 119.494 56.9023L119.143 56.1992C120.865 55.9297 122.389 54.9746 122.506 53.8438H119.553V53.0938H126.42ZM137.951 51.6875V52.4375H133.65V53.5859H136.791V56.8086H129.619V53.5859H132.748V52.4375H128.459V51.6875H137.951ZM133.65 46.4727V47.5156H136.99V48.2539H133.709C133.773 49.4141 135.432 50.1934 137.389 50.375L137.119 51.0664C135.385 50.8848 133.838 50.2871 133.205 49.25C132.566 50.2871 131.02 50.8848 129.291 51.0664L129.01 50.375C130.979 50.1934 132.625 49.4141 132.701 48.2539H129.443V47.5156H132.748V46.4727H133.65ZM130.533 54.3242V56.0586H135.889V54.3242H130.533ZM27.4141 65.7031V66.4531H21.5195V65.7031H24.0508V64.4492H24.9648V65.7031H27.4141ZM24.4961 66.9922C25.8906 66.9922 26.875 67.7539 26.875 68.9141C26.875 70.0859 25.8906 70.8477 24.4961 70.8477C23.0898 70.8477 22.1289 70.0859 22.1406 68.9141C22.1289 67.7539 23.0898 66.9922 24.4961 66.9922ZM24.4961 67.6836C23.5938 67.6953 22.9961 68.1875 22.9961 68.9141C22.9961 69.6523 23.5938 70.1328 24.4961 70.1328C25.3984 70.1328 26.0078 69.6523 26.0195 68.9141C26.0078 68.1875 25.3984 67.6953 24.4961 67.6836ZM30.1445 64.5312V71.2695H29.2188V69.8281H27.4023V69.0664H29.2188V67.8008H27.4141V67.0391H29.2188V64.5312H30.1445ZM26.7109 71.375C28.8789 71.375 30.2031 72.0195 30.2031 73.1562C30.2031 74.2695 28.8789 74.9258 26.7109 74.9258C24.5195 74.9258 23.207 74.2695 23.207 73.1562C23.207 72.0195 24.5195 71.375 26.7109 71.375ZM26.7109 72.0898C25.1289 72.0898 24.1562 72.4766 24.1562 73.1562C24.1562 73.8125 25.1289 74.2109 26.7109 74.2109C28.2695 74.2109 29.2305 73.8125 29.2305 73.1562C29.2305 72.4766 28.2695 72.0898 26.7109 72.0898ZM38.5586 67.332C38.5586 69.2188 39.7656 71.1172 41.2773 71.8086L40.7266 72.5586C39.543 71.9492 38.5645 70.7012 38.1016 69.2188C37.6387 70.7773 36.6602 72.1133 35.4766 72.7461L34.8789 72.0078C36.4023 71.2578 37.6211 69.2539 37.6211 67.332V65.4336H38.5586V67.332ZM43.5273 64.5312V74.9727H42.6133V68.8438H40.1406V68.0938H42.6133V64.5312H43.5273ZM53.8516 64.5312V74.9727H52.9258V64.5312H53.8516ZM46.7852 65.4219V68.1758H49.8906V65.4219H50.793V72.4531H45.8711V65.4219H46.7852ZM46.7852 71.6797H49.8906V68.9141H46.7852V71.6797ZM60.8242 66.0664C60.8242 67.8477 62.8633 69.4414 64.6797 69.7812L64.2578 70.5547C62.6875 70.1914 61.0293 69.0723 60.3555 67.5312C59.6816 69.0664 58.0293 70.1855 56.4531 70.5547L56.0312 69.7812C57.8359 69.4297 59.8633 67.8594 59.8633 66.0664V65.2695H60.8242V66.0664ZM65.1719 72.7695V73.5312H55.6328V72.7695H65.1719ZM77.9219 64.5312V74.9492H77.043V64.5312H77.9219ZM75.8125 64.7891V74.4102H74.9453V69.043H73.1875V68.293H74.9453V64.7891H75.8125ZM72.0742 67.5078C72.0742 69.3125 72.8828 71.1055 74.3242 71.9375L73.7617 72.6172C72.7363 72.002 72.0098 70.877 71.6523 69.5469C71.2715 70.9824 70.5156 72.207 69.4727 72.8633L68.8867 72.1719C70.3398 71.3047 71.1836 69.4062 71.1836 67.5078V66.5234H69.1797V65.7617H73.9844V66.5234H72.0742V67.5078ZM84.0977 71.1172C86.3359 71.1172 87.7539 71.8203 87.7539 73.0273C87.7539 74.2227 86.3359 74.9258 84.0977 74.9258C81.8711 74.9258 80.4531 74.2227 80.4531 73.0273C80.4531 71.8203 81.8711 71.1172 84.0977 71.1172ZM84.0977 71.8203C82.4336 71.832 81.3555 72.2891 81.3672 73.0273C81.3555 73.7539 82.4336 74.1992 84.0977 74.1992C85.7617 74.1992 86.8281 73.7539 86.8398 73.0273C86.8281 72.2891 85.7617 71.832 84.0977 71.8203ZM87.6719 65.0703V65.9492C87.6719 66.793 87.6719 67.6367 87.3789 68.7148L86.4766 68.6094C86.7578 67.5312 86.7578 66.7695 86.7578 65.9492V65.8203H80.5234V65.0703H87.6719ZM88.8789 69.3945V70.1445H79.3984V69.3945H83.3242V67.3789H84.2266V69.3945H88.8789ZM91.4688 73.2148L90.5547 76.4023H89.6875L90.332 73.2148H91.4688ZM99.5078 67.332C99.5078 69.2188 100.715 71.1172 102.227 71.8086L101.676 72.5586C100.492 71.9492 99.5137 70.7012 99.0508 69.2188C98.5879 70.7773 97.6094 72.1133 96.4258 72.7461L95.8281 72.0078C97.3516 71.2578 98.5703 69.2539 98.5703 67.332V65.4336H99.5078V67.332ZM104.477 64.5312V74.9727H103.562V68.8438H101.09V68.0938H103.562V64.5312H104.477ZM114.801 64.5312V74.9727H113.875V64.5312H114.801ZM107.734 65.4219V68.1758H110.84V65.4219H111.742V72.4531H106.82V65.4219H107.734ZM107.734 71.6797H110.84V68.9141H107.734V71.6797ZM121.773 66.0664C121.773 67.8477 123.812 69.4414 125.629 69.7812L125.207 70.5547C123.637 70.1914 121.979 69.0723 121.305 67.5312C120.631 69.0664 118.979 70.1855 117.402 70.5547L116.98 69.7812C118.785 69.4297 120.812 67.8594 120.812 66.0664V65.2695H121.773V66.0664ZM126.121 72.7695V73.5312H116.582V72.7695H126.121ZM138.859 64.5312V74.9492H137.957V69.5H136.516V74.4336H135.637V64.8125H136.516V68.7383H137.957V64.5312H138.859ZM134.453 65.8906C134.441 68.5391 133.516 71.0469 130.516 72.7109L129.977 72.0664C132.396 70.7188 133.398 68.8086 133.551 66.6523H130.375V65.8906H134.453ZM26.6055 84.5C26.6055 85.9531 27.6602 87.3242 29.1836 87.875L28.668 88.5898C27.5254 88.1328 26.6172 87.2246 26.1719 86.0938C25.7266 87.3535 24.7773 88.3555 23.5469 88.8477L23.0547 88.0977C24.6133 87.5234 25.6914 86.0703 25.7031 84.4648V83.1758H26.6055V84.5ZM31.6797 82.543V90.3477H30.7539V85.7656H28.4336V84.9922H30.7539V82.543H31.6797ZM31.9141 91.9531V92.7266H24.9414V89.457H25.8672V91.9531H31.9141ZM41.8633 83.2109V87.4531H36.9766V83.2109H41.8633ZM37.8789 83.9609V86.7266H40.9609V83.9609H37.8789ZM45.0156 82.5312V88.5195H44.1133V82.5312H45.0156ZM42.1914 89.9492C42.1914 90.9688 43.8555 91.9766 45.6484 92.1992L45.332 92.9141C43.7617 92.7031 42.332 91.9648 41.7227 90.9922C41.0898 91.9824 39.625 92.7031 38.0547 92.9141L37.7266 92.1992C39.5195 92 41.2422 90.9922 41.2422 89.9492H38.1602V89.2344H41.2539V88.2148H42.168V89.2344H45.2852V89.9492H42.1914ZM58.4102 82.543V90.1836H57.4961V82.543H58.4102ZM58.7383 91.9531V92.7266H51.6836V89.4805H52.5977V91.9531H58.7383ZM53.5 84.1719C53.4883 85.7539 54.5781 87.1836 56.125 87.7461L55.6445 88.4844C54.4375 88.0215 53.5 87.084 53.043 85.8828C52.5801 87.1602 51.6309 88.1855 50.418 88.6719L49.9141 87.957C51.4961 87.3477 52.5625 85.8125 52.5625 84.1719V83.1289H53.5V84.1719ZM68.3594 83.2109V84.0078C68.3594 84.9453 68.3594 86.1055 68.0664 87.7578H69.6719V88.5195H67.1641V92.9492H66.25V88.5195H63.5781V92.9492H62.6641V88.5195H60.1797V87.7578H67.1289C67.4688 86.1172 67.4688 84.9395 67.4688 84.0078V83.9727H61.3984V83.2109H68.3594ZM77.2305 85.332C77.2305 87.2188 78.4375 89.1172 79.9492 89.8086L79.3984 90.5586C78.2148 89.9492 77.2363 88.7012 76.7734 87.2188C76.3105 88.7773 75.332 90.1133 74.1484 90.7461L73.5508 90.0078C75.0742 89.2578 76.293 87.2539 76.293 85.332V83.4336H77.2305V85.332ZM82.1992 82.5312V92.9727H81.2852V86.8438H78.8125V86.0938H81.2852V82.5312H82.1992ZM92.5234 82.5312V92.9727H91.5977V82.5312H92.5234ZM85.457 83.4219V86.1758H88.5625V83.4219H89.4648V90.4531H84.543V83.4219H85.457ZM85.457 89.6797H88.5625V86.9141H85.457V89.6797ZM99.4961 84.0664C99.4961 85.8477 101.535 87.4414 103.352 87.7812L102.93 88.5547C101.359 88.1914 99.7012 87.0723 99.0273 85.5312C98.3535 87.0664 96.7012 88.1855 95.125 88.5547L94.7031 87.7812C96.5078 87.4297 98.5352 85.8594 98.5352 84.0664V83.2695H99.4961V84.0664ZM103.844 90.7695V91.5312H94.3047V90.7695H103.844ZM116.582 82.5312V92.9492H115.68V87.5H114.238V92.4336H113.359V82.8125H114.238V86.7383H115.68V82.5312H116.582ZM112.176 83.8906C112.164 86.5391 111.238 89.0469 108.238 90.7109L107.699 90.0664C110.119 88.7188 111.121 86.8086 111.273 84.6523H108.098V83.8906H112.176ZM119.406 82.9766V84.4766H122.441V82.9766H123.355V87.5117H118.504V82.9766H119.406ZM119.406 86.7617H122.441V85.1914H119.406V86.7617ZM126.203 82.5312V84.793H127.773V85.5664H126.203V87.9219H125.289V82.5312H126.203ZM126.203 88.4141V90.9336H120.484V92.082H126.59V92.832H119.582V90.2305H125.289V89.1523H119.559V88.4141H126.203ZM133.176 82.7188C135.496 82.7188 136.855 83.3516 136.855 84.5117C136.855 85.6953 135.496 86.3281 133.176 86.3398C130.855 86.3281 129.484 85.6953 129.484 84.5117C129.484 83.3516 130.855 82.7188 133.176 82.7188ZM133.176 83.4102C131.441 83.4102 130.434 83.832 130.445 84.5117C130.434 85.2383 131.441 85.6367 133.176 85.6367C134.898 85.6367 135.918 85.2383 135.918 84.5117C135.918 83.832 134.898 83.4102 133.176 83.4102ZM137.922 87.043V87.793H128.43V87.043H137.922ZM136.703 88.6953V91.0273H130.516V92.1055H137.02V92.832H129.602V90.3477H135.801V89.3984H129.578V88.6953H136.703ZM26.4473 101.047C28.0059 101.035 29.1191 101.891 29.1191 103.168C29.1191 104.434 28.0059 105.312 26.4473 105.301C24.8887 105.312 23.7754 104.434 23.7754 103.168C23.7754 101.891 24.8887 101.035 26.4473 101.047ZM26.4473 101.797C25.4043 101.785 24.666 102.359 24.6777 103.168C24.666 103.988 25.4043 104.551 26.4473 104.539C27.502 104.551 28.2402 103.988 28.2402 103.168C28.2402 102.359 27.502 101.785 26.4473 101.797ZM31.6035 100.543V110.961H30.7012V100.543H31.6035ZM22.9902 106.191C24.9473 106.191 27.6191 106.156 29.9395 105.816L29.998 106.508C29.002 106.689 27.9648 106.801 26.9629 106.859V110.633H26.0488V106.918C24.9883 106.965 23.9863 106.971 23.1191 106.977L22.9902 106.191ZM41.5293 100.543V103.977H43.0996V104.75H41.5293V108.348H40.6152V100.543H41.5293ZM39.6191 101.82V102.57H33.4082V101.82H36.0566V100.543H36.9707V101.82H39.6191ZM36.5137 103.145C38.002 103.145 39.0098 103.906 39.0215 105.09C39.0098 106.262 38.002 107.012 36.5137 107.012C35.0137 107.012 33.9941 106.262 34.0059 105.09C33.9941 103.906 35.0137 103.145 36.5137 103.145ZM36.5137 103.871C35.5293 103.871 34.873 104.352 34.8848 105.09C34.873 105.828 35.5293 106.297 36.5137 106.285C37.4863 106.297 38.1426 105.828 38.1543 105.09C38.1426 104.352 37.4863 103.871 36.5137 103.871ZM42.0098 109.953V110.727H35.0137V107.727H35.916V109.953H42.0098ZM56.2598 106.062V106.812H46.7559V106.062H51.0449V105.031H48.0215V100.836H55.0762V101.586H48.9473V102.559H54.7949V103.262H48.9473V104.293H55.1348V105.031H51.959V106.062H56.2598ZM51.5137 107.598C53.7988 107.586 55.0879 108.172 55.0996 109.262C55.0879 110.352 53.7988 110.926 51.5137 110.926C49.2051 110.926 47.916 110.352 47.916 109.262C47.916 108.172 49.2051 107.586 51.5137 107.598ZM51.5137 108.289C49.791 108.289 48.8301 108.641 48.8418 109.262C48.8301 109.895 49.791 110.223 51.5137 110.211C53.2129 110.223 54.1738 109.895 54.1738 109.262C54.1738 108.641 53.2129 108.289 51.5137 108.289ZM66.0566 100.531V110.949H65.1777V100.531H66.0566ZM63.9473 100.812V110.422H63.0684V106.812H61.1348V106.051H63.0684V104.199H61.3105C60.8008 105.963 59.6582 107.521 57.6895 108.699L57.127 108.031C59.3945 106.689 60.5312 104.809 60.7129 102.629H57.5957V101.867H61.627C61.627 102.4 61.5801 102.928 61.4863 103.438H63.0684V100.812H63.9473ZM78.6543 100.531V103.203H80.2129V103.988H78.6543V106.684H77.7285V100.531H78.6543ZM78.6543 107.152V109.25H72.8066V110.176H79.0527V110.832H71.8926V108.629H77.7402V107.809H71.8691V107.152H78.6543ZM70.4746 105.746C71.3066 105.746 72.2793 105.746 73.2988 105.711V105.066C72.0801 104.979 71.3066 104.492 71.3066 103.695C71.3066 102.84 72.2676 102.348 73.7441 102.348C75.2324 102.348 76.1816 102.84 76.1934 103.695C76.1816 104.486 75.4316 104.973 74.2129 105.066V105.688C75.1855 105.641 76.1699 105.564 77.084 105.43L77.166 106.051C74.916 106.414 72.4082 106.438 70.5801 106.438L70.4746 105.746ZM76.7676 101.328V101.996H70.7324V101.328H73.2988V100.438H74.2129V101.328H76.7676ZM73.7441 102.957C72.7832 102.969 72.1855 103.238 72.1855 103.695C72.1855 104.164 72.7832 104.469 73.7441 104.469C74.7051 104.469 75.3145 104.164 75.3145 103.695C75.3145 103.238 74.7051 102.969 73.7441 102.957ZM90.3848 105.688V106.449H80.8926V105.688H83.248V104.223C82.416 103.9 81.9473 103.367 81.9473 102.664C81.9473 101.434 83.3535 100.73 85.6387 100.73C87.9004 100.73 89.3184 101.434 89.3184 102.664C89.3184 103.361 88.8555 103.895 88.0293 104.211V105.688H90.3848ZM85.6387 107.246C87.877 107.246 89.2129 107.891 89.2246 109.086C89.2129 110.27 87.877 110.926 85.6387 110.926C83.377 110.926 82.041 110.27 82.041 109.086C82.041 107.891 83.377 107.246 85.6387 107.246ZM85.6387 107.949C83.9629 107.961 82.9668 108.371 82.9785 109.086C82.9668 109.789 83.9629 110.211 85.6387 110.211C87.291 110.211 88.2988 109.789 88.2988 109.086C88.2988 108.371 87.291 107.961 85.6387 107.949ZM85.6387 101.457C83.9395 101.457 82.8848 101.914 82.8965 102.664C82.8848 103.426 83.9395 103.871 85.6387 103.871C87.3262 103.871 88.3809 103.426 88.3809 102.664C88.3809 101.914 87.3262 101.457 85.6387 101.457ZM84.1621 105.688H87.1152V104.469C86.6758 104.545 86.1836 104.586 85.6387 104.586C85.0938 104.586 84.6016 104.545 84.1621 104.469V105.688ZM92.9746 109.215L92.0605 112.402H91.1934L91.8379 109.215H92.9746ZM106.264 100.531V110.949H105.385V100.531H106.264ZM104.154 100.812V110.422H103.275V106.812H101.342V106.051H103.275V104.199H101.518C101.008 105.963 99.8652 107.521 97.8965 108.699L97.334 108.031C99.6016 106.689 100.738 104.809 100.92 102.629H97.8027V101.867H101.834C101.834 102.4 101.787 102.928 101.693 103.438H103.275V100.812H104.154ZM117.408 102.148V102.898H115.861V104.363H117.408V105.148H115.861V106.73H114.947V100.531H115.861V102.148H117.408ZM115.861 107.211V110.949H114.947V107.973H109.041V107.211H115.861ZM110.646 101.164C112.229 101.152 113.377 102.172 113.389 103.613C113.377 105.078 112.229 106.086 110.646 106.086C109.064 106.086 107.904 105.078 107.916 103.613C107.904 102.172 109.064 101.152 110.646 101.164ZM110.646 101.949C109.592 101.949 108.807 102.629 108.818 103.613C108.807 104.609 109.592 105.301 110.646 105.289C111.713 105.301 112.486 104.609 112.486 103.613C112.486 102.629 111.713 101.949 110.646 101.949ZM126.678 100.531V110.973H125.752V100.531H126.678ZM121.135 101.34C122.682 101.352 123.795 102.758 123.795 104.973C123.795 107.188 122.682 108.594 121.135 108.594C119.576 108.594 118.475 107.188 118.475 104.973C118.475 102.758 119.576 101.352 121.135 101.34ZM121.135 102.16C120.092 102.172 119.365 103.273 119.365 104.973C119.365 106.672 120.092 107.773 121.135 107.773C122.178 107.773 122.904 106.672 122.904 104.973C122.904 103.273 122.178 102.172 121.135 102.16ZM137.307 100.531V107.129H136.428V104.141H135.033V106.754H134.166V100.742H135.033V103.379H136.428V100.531H137.307ZM133.744 101.785V102.523H128.4V101.785H130.627V100.613H131.541V101.785H133.744ZM131.084 103.086C132.408 103.086 133.311 103.777 133.322 104.867C133.311 105.934 132.408 106.637 131.084 106.637C129.771 106.637 128.846 105.934 128.857 104.867C128.846 103.777 129.771 103.086 131.084 103.086ZM131.084 103.766C130.252 103.766 129.678 104.211 129.678 104.867C129.678 105.512 130.252 105.945 131.084 105.945C131.916 105.945 132.49 105.512 132.49 104.867C132.49 104.211 131.916 103.766 131.084 103.766ZM133.861 107.305C136.053 107.305 137.365 107.961 137.365 109.133C137.365 110.27 136.053 110.926 133.861 110.926C131.67 110.926 130.357 110.27 130.369 109.133C130.357 107.961 131.67 107.305 133.861 107.305ZM133.861 108.031C132.244 108.02 131.271 108.418 131.283 109.133C131.271 109.812 132.244 110.211 133.861 110.211C135.479 110.211 136.439 109.812 136.451 109.133C136.439 108.418 135.479 108.02 133.861 108.031ZM29.9863 119.211V123.453H25.0996V119.211H29.9863ZM26.002 119.961V122.727H29.084V119.961H26.002ZM33.1387 118.531V124.52H32.2363V118.531H33.1387ZM30.3145 125.949C30.3145 126.969 31.9785 127.977 33.7715 128.199L33.4551 128.914C31.8848 128.703 30.4551 127.965 29.8457 126.992C29.2129 127.982 27.748 128.703 26.1777 128.914L25.8496 128.199C27.6426 128 29.3652 126.992 29.3652 125.949H26.2832V125.234H29.377V124.215H30.291V125.234H33.4082V125.949H30.3145ZM47.623 120.148V120.898H46.0762V122.363H47.623V123.148H46.0762V124.73H45.1621V118.531H46.0762V120.148H47.623ZM46.0762 125.211V128.949H45.1621V125.973H39.2559V125.211H46.0762ZM40.8613 119.164C42.4434 119.152 43.5918 120.172 43.6035 121.613C43.5918 123.078 42.4434 124.086 40.8613 124.086C39.2793 124.086 38.1191 123.078 38.1309 121.613C38.1191 120.172 39.2793 119.152 40.8613 119.164ZM40.8613 119.949C39.8066 119.949 39.0215 120.629 39.0332 121.613C39.0215 122.609 39.8066 123.301 40.8613 123.289C41.9277 123.301 42.7012 122.609 42.7012 121.613C42.7012 120.629 41.9277 119.949 40.8613 119.949ZM54.0801 119.34V119.891C54.0684 120.57 54.0684 121.613 53.8105 122.973L52.8848 122.902C53.1367 121.654 53.1602 120.77 53.1777 120.113H48.8887V119.34H54.0801ZM51.3965 121.648V123.887C52.5508 123.84 53.7461 123.758 54.8301 123.605L54.8887 124.285C52.709 124.66 50.1895 124.707 48.3379 124.707L48.2441 123.945C48.918 123.939 49.6797 123.934 50.4824 123.91V121.648H51.3965ZM56.4707 118.531V121.93H57.9941V122.715H56.4707V126.371H55.5332V118.531H56.4707ZM56.8105 127.953V128.727H49.8496V125.668H50.7754V127.953H56.8105ZM67.3105 118.543V126.254H66.3848V123.453H63.9238V124.473H59.2012V119.234H60.1152V121.086H63.0215V119.234H63.9238V120.453H66.3848V118.543H67.3105ZM67.5449 127.953V128.727H60.5723V125.492H61.498V127.953H67.5449ZM60.1152 123.711H63.0215V121.812H60.1152V123.711ZM63.9238 122.691H66.3848V121.227H63.9238V122.691ZM77.6816 118.543V124.801H76.7559V123.395H73.9902V122.633H76.7559V121.227H74.0957C73.4102 122.902 71.7988 124.115 69.5723 124.777L69.1855 124.051C71.7051 123.301 73.2695 121.895 73.4629 120.09H69.7129V119.316H74.459C74.459 119.727 74.4121 120.119 74.3301 120.488H76.7559V118.543H77.6816ZM74.2715 124.906C76.3809 124.906 77.7402 125.656 77.7402 126.898C77.7402 128.152 76.3809 128.902 74.2715 128.902C72.1387 128.902 70.791 128.152 70.791 126.898C70.791 125.656 72.1387 124.906 74.2715 124.906ZM74.2715 125.645C72.7012 125.633 71.6934 126.113 71.6934 126.898C71.6934 127.684 72.7012 128.152 74.2715 128.152C75.8184 128.152 76.8145 127.684 76.8262 126.898C76.8145 126.113 75.8184 125.633 74.2715 125.645ZM91.9316 123.488V124.262H82.4277V123.488H91.9316ZM90.8184 121.742V122.492H83.6348V118.953H90.748V119.727H84.5371V121.742H90.8184ZM87.1738 125.176C89.4121 125.176 90.748 125.855 90.7598 127.051C90.748 128.258 89.4121 128.926 87.1738 128.926C84.9238 128.926 83.5762 128.258 83.5762 127.051C83.5762 125.855 84.9238 125.176 87.1738 125.176ZM87.1738 125.891C85.498 125.902 84.502 126.324 84.5137 127.051C84.502 127.789 85.498 128.199 87.1738 128.199C88.8262 128.199 89.834 127.789 89.834 127.051C89.834 126.324 88.8262 125.902 87.1738 125.891ZM96.209 119.293C97.8496 119.293 99.0098 120.289 99.0098 121.742C99.0098 123.195 97.8496 124.191 96.209 124.191C94.5684 124.191 93.3848 123.195 93.3965 121.742C93.3848 120.289 94.5684 119.293 96.209 119.293ZM96.209 120.102C95.0957 120.102 94.2871 120.77 94.2988 121.742C94.2871 122.715 95.0957 123.383 96.209 123.383C97.3105 123.383 98.1074 122.715 98.1074 121.742C98.1074 120.77 97.3105 120.102 96.209 120.102ZM101.342 118.531V128.973H100.428V118.531H101.342ZM92.8574 125.891C94.7793 125.891 97.4277 125.879 99.7363 125.539L99.8066 126.219C97.4277 126.664 94.8613 126.676 92.9863 126.676L92.8574 125.891ZM114.537 119.586V120.629C114.525 121.906 114.525 123.336 114.15 125.434L113.213 125.328C113.611 123.336 113.611 121.871 113.611 120.629V120.348H107.189V119.586H114.537ZM115.674 126.711V127.473H106.182V126.711H109.908V122.984H110.811V126.711H115.674ZM120.279 121.73C120.279 123.5 121.568 125.293 123.104 125.961L122.588 126.688C121.369 126.131 120.314 124.93 119.834 123.488C119.342 125.018 118.293 126.348 117.104 126.945L116.553 126.219C118.041 125.504 119.342 123.535 119.354 121.73V120.371H116.893V119.609H122.764V120.371H120.279V121.73ZM125.143 118.531V128.949H124.217V118.531H125.143ZM136.451 123.371V124.098H126.912V123.371H136.451ZM135.256 124.93V127.145H128.998V128.141H135.596V128.809H128.072V126.512H134.342V125.621H128.061V124.93H135.256ZM135.221 118.848V121.004H129.068V121.918H135.408V122.586H128.154V120.371H134.295V119.516H128.119V118.848H135.221ZM27.9531 137.047C29.5117 137.035 30.625 137.891 30.625 139.168C30.625 140.434 29.5117 141.312 27.9531 141.301C26.3945 141.312 25.2812 140.434 25.2812 139.168C25.2812 137.891 26.3945 137.035 27.9531 137.047ZM27.9531 137.797C26.9102 137.785 26.1719 138.359 26.1836 139.168C26.1719 139.988 26.9102 140.551 27.9531 140.539C29.0078 140.551 29.7461 139.988 29.7461 139.168C29.7461 138.359 29.0078 137.785 27.9531 137.797ZM33.1094 136.543V146.961H32.207V136.543H33.1094ZM24.4961 142.191C26.4531 142.191 29.125 142.156 31.4453 141.816L31.5039 142.508C30.5078 142.689 29.4707 142.801 28.4688 142.859V146.633H27.5547V142.918C26.4941 142.965 25.4922 142.971 24.625 142.977L24.4961 142.191ZM43.0352 136.543V139.977H44.6055V140.75H43.0352V144.348H42.1211V136.543H43.0352ZM41.125 137.82V138.57H34.9141V137.82H37.5625V136.543H38.4766V137.82H41.125ZM38.0195 139.145C39.5078 139.145 40.5156 139.906 40.5273 141.09C40.5156 142.262 39.5078 143.012 38.0195 143.012C36.5195 143.012 35.5 142.262 35.5117 141.09C35.5 139.906 36.5195 139.145 38.0195 139.145ZM38.0195 139.871C37.0352 139.871 36.3789 140.352 36.3906 141.09C36.3789 141.828 37.0352 142.297 38.0195 142.285C38.9922 142.297 39.6484 141.828 39.6602 141.09C39.6484 140.352 38.9922 139.871 38.0195 139.871ZM43.5156 145.953V146.727H36.5195V143.727H37.4219V145.953H43.5156ZM56.9102 136.543V144.242H55.9844V141.43H53.2891C52.8086 142.045 52.0352 142.414 51.1445 142.414C49.5859 142.414 48.4375 141.336 48.4375 139.812C48.4375 138.289 49.5859 137.211 51.1445 137.199C52.0293 137.205 52.7852 137.568 53.2773 138.172H55.9844V136.543H56.9102ZM57.2031 145.953V146.727H50.2188V143.434H51.1445V145.953H57.2031ZM51.1445 138.02C50.0781 138.031 49.3164 138.77 49.3164 139.812C49.3164 140.855 50.0781 141.594 51.1445 141.594C52.1641 141.594 52.9492 140.855 52.9492 139.812C52.9492 138.77 52.1641 138.031 51.1445 138.02ZM53.6992 138.934C53.7871 139.203 53.8398 139.496 53.8398 139.812C53.8398 140.117 53.7871 140.404 53.6992 140.668H55.9844V138.934H53.6992ZM63.8125 137.164V140.035H60.0156V141.547C61.8672 141.547 63.209 141.482 64.832 141.207L64.9258 141.969C63.25 142.25 61.8555 142.309 59.9219 142.309H59.1133V139.309H62.9102V137.914H59.0898V137.164H63.8125ZM66.7891 136.543V139.215H68.3711V139.988H66.7891V142.871H65.875V136.543H66.7891ZM66.7891 143.422V146.949H65.875V144.172H59.9688V143.422H66.7891ZM70.7266 145.215L69.8125 148.402H68.9453L69.5898 145.215H70.7266ZM77.2773 136.953V138.277H82.4336V136.953H83.3477V141.113H80.3008V142.227H84.5898V142.988H75.0977V142.227H79.3867V141.113H76.3633V136.953H77.2773ZM77.2773 140.375H82.4336V139.004H77.2773V140.375ZM83.5352 145.953V146.727H76.3281V143.82H77.2539V145.953H83.5352ZM94.0703 136.543V144.16H93.1562V136.543H94.0703ZM94.3984 145.953V146.727H87.3438V143.387H88.2578V145.953H94.3984ZM88.4453 137.27C90.0039 137.27 91.1758 138.324 91.1758 139.824C91.1758 141.348 90.0039 142.391 88.4453 142.391C86.8867 142.391 85.7148 141.348 85.7148 139.824C85.7148 138.324 86.8867 137.27 88.4453 137.27ZM88.4453 138.078C87.3906 138.078 86.6055 138.805 86.6172 139.824C86.6055 140.867 87.3906 141.582 88.4453 141.582C89.4766 141.582 90.2734 140.867 90.2734 139.824C90.2734 138.805 89.4766 138.078 88.4453 138.078ZM99.25 137.293C100.891 137.293 102.051 138.289 102.051 139.742C102.051 141.195 100.891 142.191 99.25 142.191C97.6094 142.191 96.4258 141.195 96.4375 139.742C96.4258 138.289 97.6094 137.293 99.25 137.293ZM99.25 138.102C98.1367 138.102 97.3281 138.77 97.3398 139.742C97.3281 140.715 98.1367 141.383 99.25 141.383C100.352 141.383 101.148 140.715 101.148 139.742C101.148 138.77 100.352 138.102 99.25 138.102ZM104.383 136.531V146.973H103.469V136.531H104.383ZM95.8984 143.891C97.8203 143.891 100.469 143.879 102.777 143.539L102.848 144.219C100.469 144.664 97.9023 144.676 96.0273 144.676L95.8984 143.891ZM109.703 139.332C109.703 141.172 110.922 143.059 112.398 143.785L111.836 144.523C110.688 143.92 109.727 142.689 109.27 141.242C108.801 142.783 107.816 144.096 106.645 144.723L106.059 143.984C107.582 143.234 108.789 141.23 108.801 139.332V137.434H109.703V139.332ZM114.273 136.531V140.762H116.02V141.559H114.273V146.949H113.359V136.531H114.273ZM124.715 136.543V139.695H126.273V140.469H124.715V143.527H123.789V136.543H124.715ZM116.535 142.461C117.367 142.461 118.34 142.461 119.359 142.426V141.664C118.146 141.559 117.367 140.99 117.367 140.129C117.367 139.18 118.34 138.594 119.805 138.594C121.281 138.594 122.242 139.18 122.254 140.129C122.242 140.984 121.48 141.553 120.273 141.664V142.391C121.246 142.344 122.23 142.268 123.145 142.133L123.227 142.801C120.965 143.199 118.469 143.211 116.641 143.211L116.535 142.461ZM124.715 144.043V146.949H123.789V144.781H117.812V144.043H124.715ZM122.828 137.492V138.195H116.793V137.492H119.359V136.449H120.273V137.492H122.828ZM119.805 139.25C118.844 139.238 118.246 139.578 118.246 140.129C118.246 140.668 118.844 141.043 119.805 141.031C120.766 141.043 121.375 140.668 121.375 140.129C121.375 139.578 120.766 139.238 119.805 139.25ZM135.555 136.543V144.16H134.641V136.543H135.555ZM135.883 145.953V146.727H128.828V143.387H129.742V145.953H135.883ZM129.93 137.27C131.488 137.27 132.66 138.324 132.66 139.824C132.66 141.348 131.488 142.391 129.93 142.391C128.371 142.391 127.199 141.348 127.199 139.824C127.199 138.324 128.371 137.27 129.93 137.27ZM129.93 138.078C128.875 138.078 128.09 138.805 128.102 139.824C128.09 140.867 128.875 141.582 129.93 141.582C130.961 141.582 131.758 140.867 131.758 139.824C131.758 138.805 130.961 138.078 129.93 138.078ZM24.8008 155.211V159.453H19.9141V155.211H24.8008ZM20.8164 155.961V158.727H23.8984V155.961H20.8164ZM27.9531 154.531V160.52H27.0508V154.531H27.9531ZM25.1289 161.949C25.1289 162.969 26.793 163.977 28.5859 164.199L28.2695 164.914C26.6992 164.703 25.2695 163.965 24.6602 162.992C24.0273 163.982 22.5625 164.703 20.9922 164.914L20.6641 164.199C22.457 164 24.1797 162.992 24.1797 161.949H21.0977V161.234H24.1914V160.215H25.1055V161.234H28.2227V161.949H25.1289ZM38.1836 155.445V160.273H33.2969V155.445H38.1836ZM34.1992 156.207V159.535H37.2812V156.207H34.1992ZM41.3477 154.543V162.031H40.4336V154.543H41.3477ZM41.6758 163.836V164.598H34.6211V161.305H35.5352V163.836H41.6758ZM51.707 154.543V162.453H50.7812V161.375H48.625V160.707H50.7812V154.543H51.707ZM51.9648 163.953V164.727H44.5586V161.68H45.4844V163.953H51.9648ZM43.0586 159.371C45.0039 159.359 47.6055 159.348 49.8438 159.066L49.9023 159.734C48.9707 159.881 47.998 159.975 47.043 160.027V162.09H46.1172V160.074C45.0625 160.121 44.0605 160.127 43.1875 160.121L43.0586 159.371ZM46.4805 154.965C48.0039 154.965 49.0469 155.691 49.0586 156.781C49.0469 157.895 48.0039 158.586 46.4805 158.586C44.9453 158.586 43.9023 157.895 43.9023 156.781C43.9023 155.691 44.9453 154.965 46.4805 154.965ZM46.4805 155.668C45.4609 155.656 44.7695 156.113 44.7812 156.781C44.7695 157.461 45.4609 157.906 46.4805 157.906C47.4648 157.906 48.168 157.461 48.1797 156.781C48.168 156.113 47.4648 155.656 46.4805 155.668ZM66.0039 159.488V160.262H56.5V159.488H66.0039ZM64.8906 157.742V158.492H57.707V154.953H64.8203V155.727H58.6094V157.742H64.8906ZM61.2461 161.176C63.4844 161.176 64.8203 161.855 64.832 163.051C64.8203 164.258 63.4844 164.926 61.2461 164.926C58.9961 164.926 57.6484 164.258 57.6484 163.051C57.6484 161.855 58.9961 161.176 61.2461 161.176ZM61.2461 161.891C59.5703 161.902 58.5742 162.324 58.5859 163.051C58.5742 163.789 59.5703 164.199 61.2461 164.199C62.8984 164.199 63.9062 163.789 63.9062 163.051C63.9062 162.324 62.8984 161.902 61.2461 161.891ZM70.2812 155.293C71.9219 155.293 73.082 156.289 73.082 157.742C73.082 159.195 71.9219 160.191 70.2812 160.191C68.6406 160.191 67.457 159.195 67.4688 157.742C67.457 156.289 68.6406 155.293 70.2812 155.293ZM70.2812 156.102C69.168 156.102 68.3594 156.77 68.3711 157.742C68.3594 158.715 69.168 159.383 70.2812 159.383C71.3828 159.383 72.1797 158.715 72.1797 157.742C72.1797 156.77 71.3828 156.102 70.2812 156.102ZM75.4141 154.531V164.973H74.5V154.531H75.4141ZM66.9297 161.891C68.8516 161.891 71.5 161.879 73.8086 161.539L73.8789 162.219C71.5 162.664 68.9336 162.676 67.0586 162.676L66.9297 161.891ZM88.6094 155.586V156.629C88.5977 157.906 88.5977 159.336 88.2227 161.434L87.2852 161.328C87.6836 159.336 87.6836 157.871 87.6836 156.629V156.348H81.2617V155.586H88.6094ZM89.7461 162.711V163.473H80.2539V162.711H83.9805V158.984H84.8828V162.711H89.7461ZM99.4727 154.543V160.684H98.5938V157.93H97.1758V160.613H96.2969V154.742H97.1758V157.168H98.5938V154.543H99.4727ZM99.4727 161.164V164.949H98.5703V161.914H92.4414V161.164H99.4727ZM95.1953 155.305C95.1953 157.789 93.7891 159.676 91.1406 160.801L90.6836 160.109C92.8457 159.225 94.0703 157.818 94.2461 156.066H91.1055V155.305H95.1953ZM103.176 154.707V155.703H108.332V154.707H109.246V158.129H102.262V154.707H103.176ZM103.176 157.414H108.332V156.406H103.176V157.414ZM110.488 158.996V159.758H106.188V160.777H109.27V163.086H103.082V164.105H109.586V164.832H102.168V162.406H108.367V161.48H102.145V160.777H105.273V159.758H100.996V158.996H110.488ZM116.629 155.48V160.273H111.812V155.48H116.629ZM112.715 156.23V159.535H115.738V156.23H112.715ZM119.512 154.531V157.707H121.082V158.48H119.512V162.172H118.598V154.531H119.512ZM119.992 163.953V164.727H112.996V161.445H113.898V163.953H119.992ZM130.375 154.531V164.973H129.449V159.488H127.164V158.727H129.449V154.531H130.375ZM125.336 157.93C125.336 159.652 126.508 161.34 128.055 162.031L127.527 162.746C126.344 162.201 125.359 161.064 124.902 159.688C124.445 161.141 123.473 162.359 122.289 162.934L121.762 162.219C123.285 161.504 124.434 159.723 124.434 157.93V157.098H122.043V156.348H124.434V154.73H125.348V156.348H127.703V157.098H125.336V157.93ZM140.711 154.531V164.973H139.797V154.531H140.711ZM137.547 155.504V159.207H133.656V161.668C135.385 161.668 136.926 161.592 138.789 161.293L138.883 162.066C136.961 162.371 135.379 162.441 133.586 162.441H132.719V158.457H136.621V156.266H132.695V155.504H137.547Z" fill="black"/>
<rect width="140" height="150" transform="translate(161 31)" fill="white"/>
<rect x="161" y="31" width="140" height="150" fill="white" stroke="#707070"/>
<path d="M185.771 47.5312V57.9727H184.846V47.5312H185.771ZM180.229 48.3398C181.775 48.3516 182.889 49.7578 182.889 51.9727C182.889 54.1875 181.775 55.5938 180.229 55.5938C178.67 55.5938 177.568 54.1875 177.568 51.9727C177.568 49.7578 178.67 48.3516 180.229 48.3398ZM180.229 49.1602C179.186 49.1719 178.459 50.2734 178.459 51.9727C178.459 53.6719 179.186 54.7734 180.229 54.7734C181.271 54.7734 181.998 53.6719 181.998 51.9727C181.998 50.2734 181.271 49.1719 180.229 49.1602ZM197.08 52.9102V53.6719H187.541V52.9102H197.08ZM195.85 47.7891V50.25H189.697V51.293H196.072V52.0078H188.783V49.5586H194.924V48.5273H188.748V47.7891H195.85ZM195.85 54.6211V57.8086H188.842V54.6211H195.85ZM189.744 55.3711V57.0586H194.947V55.3711H189.744ZM198.568 53.7656C198.58 51.5508 199.178 49.7109 200.256 48.1523H201.146C200.35 49.3125 199.611 51.6797 199.611 53.7656C199.611 55.8516 200.35 58.2305 201.146 59.3906H200.256C199.178 57.8203 198.58 55.9805 198.568 53.7656ZM210.627 47.5312V52.9453H209.701V47.5312H210.627ZM210.627 53.4492V55.9336H204.744V57.082H211.025V57.832H203.842V55.2422H209.713V54.1875H203.807V53.4492H210.627ZM208.119 48.2461V48.9844H207.064V51.6445C207.604 51.6152 208.137 51.5625 208.635 51.5039L208.682 52.1836C206.596 52.4883 204.146 52.5703 202.307 52.5703L202.189 51.8086L203.525 51.7969V48.9844H202.482V48.2461H208.119ZM204.416 51.7734C204.99 51.7617 205.582 51.7441 206.174 51.7031V48.9844H204.416V51.7734ZM217.611 48.5039C217.611 49.9688 219.533 51.2461 221.408 51.5039L221.033 52.2539C219.416 51.9844 217.816 51.0879 217.143 49.8047C216.475 51.0938 214.869 51.9844 213.252 52.2539L212.877 51.5039C214.752 51.2461 216.662 49.9922 216.662 48.5039V47.9062H217.611V48.5039ZM221.877 53.4023V54.1758H217.564V57.9492H216.662V54.1758H212.385V53.4023H221.877ZM225.357 53.7656C225.346 55.9805 224.748 57.8203 223.67 59.3906H222.779C223.576 58.2305 224.314 55.8516 224.314 53.7656C224.314 51.6797 223.576 49.3125 222.779 48.1523H223.67C224.748 49.7109 225.346 51.5508 225.357 53.7656ZM228.557 56.2148L227.643 59.4023H226.775L227.42 56.2148H228.557ZM236.514 49.1719C236.502 50.6602 237.557 51.9727 239.092 52.4883L238.576 53.2031C237.428 52.7695 236.525 51.9258 236.08 50.8242C235.629 52.0723 234.674 53.0449 233.42 53.5195L232.916 52.7695C234.521 52.207 235.588 50.8242 235.6 49.207V48.1289H236.514V49.1719ZM241.564 47.5312V53.707H240.639V50.5312H238.318V49.7695H240.639V47.5312H241.564ZM238.107 54.0117C240.275 54.0117 241.6 54.7266 241.6 55.9805C241.6 57.2227 240.275 57.9258 238.107 57.9258C235.939 57.9258 234.615 57.2227 234.615 55.9805C234.615 54.7266 235.939 54.0117 238.107 54.0117ZM238.107 54.7383C236.514 54.7383 235.518 55.207 235.529 55.9805C235.518 56.7305 236.514 57.1875 238.107 57.1875C239.701 57.1875 240.686 56.7305 240.686 55.9805C240.686 55.207 239.701 54.7383 238.107 54.7383ZM251.924 47.5312V52.9805H251.01V51.6445H248.549V52.5586H243.826V48.0234H244.74V49.5234H247.646V48.0234H248.549V49.0312H251.01V47.5312H251.924ZM251.924 53.4844V55.9336H246.111V57.0703H252.322V57.8086H245.197V55.2305H251.01V54.2227H245.174V53.4844H251.924ZM244.74 51.8086H247.646V50.25H244.74V51.8086ZM248.549 50.918H251.01V49.7461H248.549V50.918ZM254.314 53.7656C254.326 51.5508 254.924 49.7109 256.002 48.1523H256.893C256.096 49.3125 255.357 51.6797 255.357 53.7656C255.357 55.8516 256.096 58.2305 256.893 59.3906H256.002C254.924 57.8203 254.326 55.9805 254.314 53.7656ZM266.373 47.5312V52.9453H265.447V47.5312H266.373ZM266.373 53.4492V55.9336H260.49V57.082H266.771V57.832H259.588V55.2422H265.459V54.1875H259.553V53.4492H266.373ZM263.865 48.2461V48.9844H262.811V51.6445C263.35 51.6152 263.883 51.5625 264.381 51.5039L264.428 52.1836C262.342 52.4883 259.893 52.5703 258.053 52.5703L257.936 51.8086L259.271 51.7969V48.9844H258.229V48.2461H263.865ZM260.162 51.7734C260.736 51.7617 261.328 51.7441 261.92 51.7031V48.9844H260.162V51.7734ZM273.357 48.5039C273.357 49.9688 275.279 51.2461 277.154 51.5039L276.779 52.2539C275.162 51.9844 273.562 51.0879 272.889 49.8047C272.221 51.0938 270.615 51.9844 268.998 52.2539L268.623 51.5039C270.498 51.2461 272.408 49.9922 272.408 48.5039V47.9062H273.357V48.5039ZM277.623 53.4023V54.1758H273.311V57.9492H272.408V54.1758H268.131V53.4023H277.623ZM281.104 53.7656C281.092 55.9805 280.494 57.8203 279.416 59.3906H278.525C279.322 58.2305 280.061 55.8516 280.061 53.7656C280.061 51.6797 279.322 49.3125 278.525 48.1523H279.416C280.494 49.7109 281.092 51.5508 281.104 53.7656ZM284.303 56.2148L283.389 59.4023H282.521L283.166 56.2148H284.303ZM197.777 67.6055C197.777 68.7539 198.586 69.9258 199.922 70.4297L199.441 71.1328C198.439 70.7461 197.719 70.002 197.344 69.1055C196.957 70.1016 196.213 70.9863 195.188 71.4258L194.684 70.7109C196.055 70.1133 196.898 68.7656 196.898 67.6055V66.1875H197.777V67.6055ZM203.52 65.543V71.9766H202.641V69.1055H201.258V71.6484H200.391V65.7422H201.258V68.3438H202.641V65.543H203.52ZM200.074 72.2109C202.23 72.2109 203.578 72.8906 203.578 74.0742C203.578 75.2461 202.23 75.9258 200.074 75.9258C197.906 75.9258 196.57 75.2461 196.582 74.0742C196.57 72.8906 197.906 72.2109 200.074 72.2109ZM200.074 72.9141C198.48 72.9141 197.484 73.3477 197.496 74.0742C197.484 74.7891 198.48 75.2109 200.074 75.2109C201.656 75.2109 202.652 74.7891 202.664 74.0742C202.652 73.3477 201.656 72.9141 200.074 72.9141ZM213.68 65.543V73.2539H212.754V69.6445H209.754V68.9062H212.754V67.6523H209.754V66.9141H212.754V65.543H213.68ZM213.961 74.9531V75.7266H206.965V72.5977H207.891V74.9531H213.961ZM206.59 66.293V70.9219C208.025 70.916 209.408 70.8398 210.996 70.5469L211.09 71.3086C209.391 71.625 207.973 71.6953 206.449 71.707H205.664V66.293H206.59ZM224.004 65.543V71.6836H223.078V71.1094H220.969V70.5H223.078V65.543H224.004ZM215.379 69.4688C217.395 69.4805 219.973 69.457 222.223 69.2109L222.281 69.8086C221.262 69.9551 220.201 70.043 219.164 70.0898V71.7188H218.262V70.125C217.277 70.1602 216.334 70.166 215.484 70.1602L215.379 69.4688ZM224.004 72.0586V74.2148H217.922V75.1523H224.344V75.832H217.02V73.5703H223.09V72.7266H216.973V72.0586H224.004ZM218.777 65.7422C220.324 65.7422 221.355 66.3516 221.367 67.3125C221.355 68.2852 220.324 68.8711 218.777 68.8711C217.207 68.8711 216.188 68.2852 216.188 67.3125C216.188 66.3516 217.207 65.7422 218.777 65.7422ZM218.777 66.3867C217.723 66.3867 217.043 66.75 217.055 67.3125C217.043 67.8633 217.723 68.2383 218.777 68.2383C219.82 68.2383 220.5 67.8633 220.5 67.3125C220.5 66.75 219.82 66.3867 218.777 66.3867ZM228.738 65.918C230.297 65.9297 231.434 66.8672 231.434 68.2266C231.434 69.5859 230.297 70.5234 228.738 70.5234C227.156 70.5234 226.031 69.5859 226.031 68.2266C226.031 66.8672 227.156 65.9297 228.738 65.918ZM228.738 66.6914C227.695 66.6914 226.922 67.3242 226.934 68.2266C226.922 69.1406 227.695 69.7734 228.738 69.7734C229.77 69.7734 230.543 69.1406 230.543 68.2266C230.543 67.3242 229.77 66.6914 228.738 66.6914ZM234.387 65.5312V70.8867H233.473V65.5312H234.387ZM234.387 71.3906V73.8984H228.539V75.0703H234.762V75.8086H227.637V73.207H233.473V72.1289H227.613V71.3906H234.387ZM236.801 71.7656C236.812 69.5508 237.41 67.7109 238.488 66.1523H239.379C238.582 67.3125 237.844 69.6797 237.844 71.7656C237.844 73.8516 238.582 76.2305 239.379 77.3906H238.488C237.41 75.8203 236.812 73.9805 236.801 71.7656ZM248.859 65.5312V70.9453H247.934V65.5312H248.859ZM248.859 71.4492V73.9336H242.977V75.082H249.258V75.832H242.074V73.2422H247.945V72.1875H242.039V71.4492H248.859ZM246.352 66.2461V66.9844H245.297V69.6445C245.836 69.6152 246.369 69.5625 246.867 69.5039L246.914 70.1836C244.828 70.4883 242.379 70.5703 240.539 70.5703L240.422 69.8086L241.758 69.7969V66.9844H240.715V66.2461H246.352ZM242.648 69.7734C243.223 69.7617 243.814 69.7441 244.406 69.7031V66.9844H242.648V69.7734ZM255.844 66.5039C255.844 67.9688 257.766 69.2461 259.641 69.5039L259.266 70.2539C257.648 69.9844 256.049 69.0879 255.375 67.8047C254.707 69.0938 253.102 69.9844 251.484 70.2539L251.109 69.5039C252.984 69.2461 254.895 67.9922 254.895 66.5039V65.9062H255.844V66.5039ZM260.109 71.4023V72.1758H255.797V75.9492H254.895V72.1758H250.617V71.4023H260.109ZM263.59 71.7656C263.578 73.9805 262.98 75.8203 261.902 77.3906H261.012C261.809 76.2305 262.547 73.8516 262.547 71.7656C262.547 69.6797 261.809 67.3125 261.012 66.1523H261.902C262.98 67.7109 263.578 69.5508 263.59 71.7656ZM266.789 74.2148L265.875 77.4023H265.008L265.652 74.2148H266.789ZM196.934 84.6914V85.4414H188.484V84.6914H192.281V83.4727H193.184V84.6914H196.934ZM197.531 90.1875V90.9492H195.012V93.9727H194.098V90.9492H191.402V93.9727H190.477V90.9492H187.992V90.1875H197.531ZM192.738 86.0391C194.859 86.0391 196.137 86.6484 196.137 87.7617C196.137 88.8633 194.859 89.4844 192.738 89.4844C190.605 89.4844 189.328 88.8633 189.34 87.7617C189.328 86.6484 190.605 86.0391 192.738 86.0391ZM192.738 86.7422C191.18 86.7539 190.277 87.1172 190.289 87.7617C190.277 88.4062 191.18 88.7695 192.738 88.7695C194.273 88.7695 195.176 88.4062 195.188 87.7617C195.176 87.1172 194.273 86.7539 192.738 86.7422ZM207.27 83.5312V93.9492H206.391V88.4883H204.855V93.4102H204.012V83.7656H204.855V87.7266H206.391V83.5312H207.27ZM202.652 84.8086V85.5703H199.664V90.5859C201.1 90.5801 202.096 90.5273 203.25 90.293L203.332 91.0664C202.078 91.3242 201.012 91.3711 199.418 91.3711H198.75V84.8086H202.652ZM217.324 84.0117V84.7734H215.719V87.1641H217.289V87.9023H213.938V89.1797H218.227V89.9297H208.734V89.1797H213.023V87.9023H209.66V87.1641H211.23V84.7734H209.625V84.0117H217.324ZM217.172 92.9531V93.7266H209.965V90.8438H210.891V92.9531H217.172ZM212.145 87.1641H214.805V84.7734H212.145V87.1641ZM227.742 83.543V91.2539H226.816V87.2461H224.355V89.4727H219.633V84.2344H220.547V86.0859H223.453V84.2344H224.355V86.4727H226.816V83.543H227.742ZM227.977 92.9531V93.7266H221.004V90.4922H221.93V92.9531H227.977ZM220.547 88.7109H223.453V86.8125H220.547V88.7109ZM238.477 85.0781V85.8398H229.945V85.0781H233.766V83.707H234.668V85.0781H238.477ZM239.016 91.9688V92.7305H229.477V91.9688H233.766V90.5039C231.914 90.4043 230.789 89.6836 230.801 88.5117C230.789 87.2695 232.102 86.543 234.223 86.5547C236.32 86.543 237.645 87.2695 237.645 88.5117C237.645 89.6836 236.508 90.4043 234.668 90.5039V91.9688H239.016ZM234.223 87.2812C232.664 87.2812 231.715 87.7383 231.727 88.5117C231.715 89.3086 232.664 89.7539 234.223 89.7656C235.758 89.7539 236.707 89.3086 236.707 88.5117C236.707 87.7383 235.758 87.2812 234.223 87.2812ZM240.492 89.7656C240.504 87.5508 241.102 85.7109 242.18 84.1523H243.07C242.273 85.3125 241.535 87.6797 241.535 89.7656C241.535 91.8516 242.273 94.2305 243.07 95.3906H242.18C241.102 93.8203 240.504 91.9805 240.492 89.7656ZM252.551 83.5312V88.9453H251.625V83.5312H252.551ZM252.551 89.4492V91.9336H246.668V93.082H252.949V93.832H245.766V91.2422H251.637V90.1875H245.73V89.4492H252.551ZM250.043 84.2461V84.9844H248.988V87.6445C249.527 87.6152 250.061 87.5625 250.559 87.5039L250.605 88.1836C248.52 88.4883 246.07 88.5703 244.23 88.5703L244.113 87.8086L245.449 87.7969V84.9844H244.406V84.2461H250.043ZM246.34 87.7734C246.914 87.7617 247.506 87.7441 248.098 87.7031V84.9844H246.34V87.7734ZM259.535 84.5039C259.535 85.9688 261.457 87.2461 263.332 87.5039L262.957 88.2539C261.34 87.9844 259.74 87.0879 259.066 85.8047C258.398 87.0938 256.793 87.9844 255.176 88.2539L254.801 87.5039C256.676 87.2461 258.586 85.9922 258.586 84.5039V83.9062H259.535V84.5039ZM263.801 89.4023V90.1758H259.488V93.9492H258.586V90.1758H254.309V89.4023H263.801ZM267.281 89.7656C267.27 91.9805 266.672 93.8203 265.594 95.3906H264.703C265.5 94.2305 266.238 91.8516 266.238 89.7656C266.238 87.6797 265.5 85.3125 264.703 84.1523H265.594C266.672 85.7109 267.27 87.5508 267.281 89.7656ZM270.48 92.2148L269.566 95.4023H268.699L269.344 92.2148H270.48ZM209.994 101.531V111.973H209.068V101.531H209.994ZM204.451 102.34C205.998 102.352 207.111 103.758 207.111 105.973C207.111 108.188 205.998 109.594 204.451 109.594C202.893 109.594 201.791 108.188 201.791 105.973C201.791 103.758 202.893 102.352 204.451 102.34ZM204.451 103.16C203.408 103.172 202.682 104.273 202.682 105.973C202.682 107.672 203.408 108.773 204.451 108.773C205.494 108.773 206.221 107.672 206.221 105.973C206.221 104.273 205.494 103.172 204.451 103.16ZM216.146 102.75V105.469H217.729V101.754H218.607V111.422H217.729V106.23H216.146V109.148H212.162V102.75H216.146ZM213.029 103.488V108.41H215.279V103.488H213.029ZM220.705 101.531V111.949H219.814V101.531H220.705ZM225.1 101.918C226.658 101.93 227.795 102.867 227.795 104.227C227.795 105.586 226.658 106.523 225.1 106.523C223.518 106.523 222.393 105.586 222.393 104.227C222.393 102.867 223.518 101.93 225.1 101.918ZM225.1 102.691C224.057 102.691 223.283 103.324 223.295 104.227C223.283 105.141 224.057 105.773 225.1 105.773C226.131 105.773 226.904 105.141 226.904 104.227C226.904 103.324 226.131 102.691 225.1 102.691ZM230.748 101.531V106.887H229.834V101.531H230.748ZM230.748 107.391V109.898H224.9V111.07H231.123V111.809H223.998V109.207H229.834V108.129H223.975V107.391H230.748ZM233.162 107.766C233.174 105.551 233.771 103.711 234.85 102.152H235.74C234.943 103.312 234.205 105.68 234.205 107.766C234.205 109.852 234.943 112.23 235.74 113.391H234.85C233.771 111.82 233.174 109.98 233.162 107.766ZM245.221 101.531V106.945H244.295V101.531H245.221ZM245.221 107.449V109.934H239.338V111.082H245.619V111.832H238.436V109.242H244.307V108.188H238.4V107.449H245.221ZM242.713 102.246V102.984H241.658V105.645C242.197 105.615 242.73 105.562 243.229 105.504L243.275 106.184C241.189 106.488 238.74 106.57 236.9 106.57L236.783 105.809L238.119 105.797V102.984H237.076V102.246H242.713ZM239.01 105.773C239.584 105.762 240.176 105.744 240.768 105.703V102.984H239.01V105.773ZM252.205 102.504C252.205 103.969 254.127 105.246 256.002 105.504L255.627 106.254C254.01 105.984 252.41 105.088 251.736 103.805C251.068 105.094 249.463 105.984 247.846 106.254L247.471 105.504C249.346 105.246 251.256 103.992 251.256 102.504V101.906H252.205V102.504ZM256.471 107.402V108.176H252.158V111.949H251.256V108.176H246.979V107.402H256.471ZM259.951 107.766C259.939 109.98 259.342 111.82 258.264 113.391H257.373C258.17 112.23 258.908 109.852 258.908 107.766C258.908 105.68 258.17 103.312 257.373 102.152H258.264C259.342 103.711 259.939 105.551 259.951 107.766Z" fill="black"/>
<rect width="140" height="150" transform="translate(301 31)" fill="white"/>
<path d="M301 31H441V181H301V31Z" fill="white" stroke="#707070"/>
<path d="M327.271 46.5312V56.9492H326.357V46.5312H327.271ZM318.787 54.1719C319.678 54.166 320.697 54.1602 321.752 54.125V52.9883C320.504 52.8535 319.689 52.1445 319.701 51.1016C319.689 49.9297 320.697 49.168 322.197 49.168C323.697 49.168 324.717 49.9297 324.717 51.1016C324.717 52.1328 323.908 52.8418 322.678 52.9766V54.0898C323.686 54.0488 324.705 53.9727 325.666 53.8438L325.736 54.5469C323.416 54.9219 320.861 54.957 318.928 54.957L318.787 54.1719ZM325.396 47.8203V48.5703H319.01V47.8203H321.752V46.543H322.678V47.8203H325.396ZM322.197 49.8828C321.236 49.8828 320.557 50.375 320.557 51.1016C320.557 51.8281 321.236 52.2969 322.197 52.2852C323.17 52.2969 323.838 51.8281 323.838 51.1016C323.838 50.375 323.17 49.8828 322.197 49.8828ZM337.689 46.543V54.4531H336.764V53.375H334.607V52.707H336.764V46.543H337.689ZM337.947 55.9531V56.7266H330.541V53.6797H331.467V55.9531H337.947ZM329.041 51.3711C330.986 51.3594 333.588 51.3477 335.826 51.0664L335.885 51.7344C334.953 51.8809 333.98 51.9746 333.025 52.0273V54.0898H332.1V52.0742C331.045 52.1211 330.043 52.127 329.17 52.1211L329.041 51.3711ZM332.463 46.9648C333.986 46.9648 335.029 47.6914 335.041 48.7812C335.029 49.8945 333.986 50.5859 332.463 50.5859C330.928 50.5859 329.885 49.8945 329.885 48.7812C329.885 47.6914 330.928 46.9648 332.463 46.9648ZM332.463 47.668C331.443 47.6562 330.752 48.1133 330.764 48.7812C330.752 49.4609 331.443 49.9062 332.463 49.9062C333.447 49.9062 334.15 49.4609 334.162 48.7812C334.15 48.1133 333.447 47.6562 332.463 47.668ZM347.768 47.0586V47.8086H343.889V48.9336H347.568V49.6484H343.889V50.8555C345.963 50.8555 347.094 50.8145 348.482 50.5859L348.576 51.3242C347.123 51.5703 345.939 51.6055 343.76 51.6055H342.975V47.0586H347.768ZM350.627 46.5312V48.8164H352.197V49.5781H350.627V51.9805H349.713V46.5312H350.627ZM350.627 52.4844V54.9336H344.908V56.0938H351.014V56.832H344.006V54.2305H349.713V53.2227H343.982V52.4844H350.627ZM359.17 51.5586V52.3086H356.814V53.9961C357.816 53.9492 358.836 53.8672 359.791 53.7266L359.861 54.4062C357.482 54.8398 354.916 54.8398 353.041 54.8516L352.912 54.0781C353.785 54.0723 354.816 54.0723 355.9 54.0312V52.3086H353.709V47.4805H359.123V48.2305H354.635V49.5078H358.9V50.2344H354.635V51.5586H359.17ZM361.396 46.5312V56.9727H360.482V46.5312H361.396ZM369.939 49.332C369.928 51.2305 371.229 53.1523 372.764 53.8438L372.201 54.5703C371.018 53.9902 369.992 52.7656 369.494 51.2773C369.008 52.8535 367.982 54.166 366.764 54.7812L366.178 54.0078C367.725 53.293 369.014 51.3125 369.025 49.332V47.4336H369.939V49.332ZM374.826 46.5312V56.9727H373.9V46.5312H374.826ZM388.268 47.0117V47.7617H384.963C384.963 48.9746 386.738 49.9297 388.584 50.1289L388.244 50.8672C386.539 50.6504 384.939 49.877 384.365 48.6992C383.797 49.877 382.203 50.6504 380.498 50.8672L380.158 50.1289C381.992 49.918 383.756 48.9746 383.768 47.7617H380.486V47.0117H388.268ZM389.146 51.5586V52.3086H379.619V51.5586H389.146ZM387.939 53.3984V56.9492H387.014V54.1484H380.674V53.3984H387.939ZM393.693 49.332C393.682 51.2305 394.982 53.1523 396.518 53.8438L395.955 54.5703C394.771 53.9902 393.746 52.7656 393.248 51.2773C392.762 52.8535 391.736 54.166 390.518 54.7812L389.932 54.0078C391.479 53.293 392.768 51.3125 392.779 49.332V47.4336H393.693V49.332ZM398.58 46.5312V56.9727H397.654V46.5312H398.58ZM409.361 47.668V48.4297H408.201V53.4453C408.764 53.4043 409.32 53.3574 409.854 53.293L409.9 53.9727C407.697 54.3242 405.201 54.3594 403.361 54.3711L403.244 53.5859L404.65 53.5742V48.4297H403.502V47.668H409.361ZM411.436 46.5312V50.7148H413.182V51.4883H411.436V56.9492H410.521V46.5312H411.436ZM405.541 53.5625C406.121 53.5508 406.725 53.5273 407.322 53.4922V48.4297H405.541V53.5625ZM422.357 46.5312V56.9492H421.432V46.5312H422.357ZM419.275 47.668C419.264 50.668 417.869 53.3164 414.377 54.9922L413.873 54.2422C416.691 52.9062 418.127 50.9082 418.338 48.418H414.354V47.668H419.275Z" fill="black"/>
<path d="M318.307 57.916H423.693V58.7305H318.307V57.916Z" fill="black"/>
</svg>
