<svg width="316" height="56" viewBox="0 0 316 56" fill="none" xmlns="http://www.w3.org/2000/svg">
<g filter="url(#filter0_d_7776_2531)">
<path d="M30.47 17.3636C30.47 13.4789 28.5207 10.0494 25.5468 8H48.0387H288C298.493 8 307 16.5066 307 27C307 37.4934 298.493 46 288 46H49.47C38.9766 46 30.47 37.4934 30.47 27V17.3636Z" fill="white" stroke="#3AAF85" stroke-width="2"/>
<g filter="url(#filter1_d_7776_2531)">
<path d="M56.8311 21.8965C57.9453 21.9033 58.8477 22.5527 59.374 23.6738H62.5732V20.9531H63.6396V33.1348H62.5732V28.418H59.4561C58.9434 29.6484 58.0068 30.3594 56.8311 30.3594C55.04 30.3594 53.7822 28.7188 53.7822 26.1348C53.7822 23.5508 55.04 21.9102 56.8311 21.8965ZM56.8311 22.8535C55.6279 22.8672 54.8076 24.1523 54.8076 26.1348C54.8076 28.1172 55.6279 29.4023 56.8311 29.4023C58.0205 29.4023 58.8545 28.1172 58.8545 26.1348C58.8545 24.1523 58.0205 22.8672 56.8311 22.8535ZM59.6885 24.5762C59.7979 25.0479 59.8662 25.5674 59.8662 26.1348C59.8662 26.6338 59.8115 27.1055 59.7295 27.5293H62.5732V24.5762H59.6885ZM75.7119 20.9531V33.1074H74.6318V20.9531H75.7119ZM72.1162 22.2793C72.1025 25.7793 70.4756 28.8691 66.4014 30.8242L65.8135 29.9492C69.1016 28.3906 70.7764 26.0596 71.0225 23.1543H66.374V22.2793H72.1162ZM87.8389 20.9531V33.1348H86.7588V26.2715H84.0928V25.3828H86.7588V20.9531H87.8389ZM81.9736 24.5625C81.9736 26.5859 83.4229 28.7871 85.2002 29.5938L84.5576 30.4551C83.1699 29.7783 82.001 28.3086 81.4541 26.6133C80.8936 28.4111 79.6973 29.9697 78.3096 30.7012L77.6533 29.8672C79.417 29.0059 80.8799 26.7227 80.8936 24.5625V23.0996H78.1182V22.2109H84.7627V23.0996H81.9736V24.5625ZM99.9111 20.9531V33.1074H98.8311V20.9531H99.9111ZM96.3154 22.2793C96.3018 25.7793 94.6748 28.8691 90.6006 30.8242L90.0127 29.9492C93.3008 28.3906 94.9756 26.0596 95.2217 23.1543H90.5732V22.2793H96.3154ZM115.237 28.7461V29.5254H107.937V30.4688H114.95V31.207H107.937V32.2051H115.374V32.9707H106.856V28.7461H115.237ZM115.907 21.8828V22.6758H106.05V21.8828H110.479V20.7617H111.546V21.8828H115.907ZM111.013 23.1816C113.569 23.1816 114.95 23.7285 114.95 24.8223C114.95 25.916 113.569 26.4629 111.013 26.4629C108.456 26.4629 107.062 25.916 107.062 24.8223C107.062 23.7285 108.456 23.1816 111.013 23.1816ZM111.013 23.9336C109.167 23.9336 108.196 24.2344 108.21 24.8223C108.196 25.4102 109.167 25.7109 111.013 25.7109C112.845 25.7109 113.815 25.4102 113.829 24.8223C113.815 24.2344 112.845 23.9336 111.013 23.9336ZM116.55 27.1465V27.9668H105.476V27.1465H116.55ZM120.843 21.8965C122.497 21.9102 123.687 23.3252 123.864 25.6016H126.585V20.9531H127.651V33.1348H126.585V26.4902H123.878C123.748 28.8691 122.538 30.3594 120.843 30.3594C119.052 30.3594 117.794 28.7188 117.794 26.1348C117.794 23.5508 119.052 21.9102 120.843 21.8965ZM120.843 22.8535C119.64 22.8672 118.819 24.1523 118.819 26.1348C118.819 28.1172 119.64 29.4023 120.843 29.4023C122.032 29.4023 122.866 28.1172 122.866 26.1348C122.866 24.1523 122.032 22.8672 120.843 22.8535ZM139.751 20.9531V33.1074H138.671V27.8711H136.183V26.9688H138.671V25.2871H136.183V24.3848H138.671V20.9531H139.751ZM133.886 24.5625C133.886 26.4629 135.335 28.7598 137.071 29.6348L136.429 30.4551C135.103 29.7646 133.934 28.2607 133.38 26.5859C132.833 28.4248 131.644 30.0107 130.304 30.7559L129.593 29.9355C131.329 29.0742 132.792 26.7363 132.806 24.5625V23.0996H130.03V22.2109H136.661V23.0996H133.886V24.5625ZM149.403 29.1152C149.403 30.1885 149.978 31.3301 151.14 31.9863C152.288 31.2686 152.903 30.0586 152.903 29.1152V28.4453H153.956V29.1152C153.956 30.3594 154.872 31.6172 156.431 32.1504L155.897 32.9434C154.681 32.5127 153.826 31.665 153.409 30.6465C153.033 31.6309 152.288 32.5605 151.167 33.0391C149.984 32.5879 149.232 31.6924 148.87 30.6738C148.439 31.6582 147.599 32.5059 146.437 32.9434L145.89 32.1504C147.421 31.5762 148.351 30.2773 148.364 29.1152V28.4453H149.403V29.1152ZM155.323 20.9668V27.9121H154.257V20.9668H155.323ZM148.761 21.6777C150.606 21.6777 151.946 22.8262 151.946 24.5215C151.946 26.1895 150.606 27.3379 148.761 27.3379C146.915 27.3379 145.575 26.1895 145.575 24.5215C145.575 22.8262 146.915 21.6777 148.761 21.6777ZM148.761 22.5938C147.517 22.5801 146.614 23.3867 146.628 24.5215C146.614 25.6426 147.517 26.4355 148.761 26.4492C149.991 26.4355 150.894 25.6426 150.894 24.5215C150.894 23.3867 149.991 22.5801 148.761 22.5938ZM163.69 21.9785V22.8672H159.151V27.1602C161.332 27.1602 162.74 27.085 164.374 26.7637L164.511 27.6523C162.774 27.9531 161.298 28.0488 159.015 28.0488H158.099V21.9785H163.69ZM167.464 20.9668V29.8398H166.384V25.2188H162.897V24.3438H166.384V20.9668H167.464ZM167.792 32.041V32.916H159.63V29.1699H160.71V32.041H167.792ZM183.378 20.9531V33.1074H182.325V26.8184H180.575V32.4785H179.563V21.2266H180.575V25.9023H182.325V20.9531H183.378ZM174.683 22.4434V29.0059C175.893 28.9922 177.178 28.9102 178.661 28.6094L178.798 29.5664C177.103 29.8672 175.708 29.9629 174.368 29.9629H173.616V22.4434H174.683ZM198.103 20.9531V24.0703H199.921V24.9863H198.103V28.1309H197.022V20.9531H198.103ZM198.103 28.6777V31.125H191.28V32.2051H198.567V32.9707H190.214V30.4004H197.036V29.4434H190.187V28.6777H198.103ZM188.56 27.0371C189.53 27.0371 190.665 27.0371 191.854 26.9961V26.2441C190.433 26.1416 189.53 25.5742 189.53 24.6445C189.53 23.6465 190.651 23.0723 192.374 23.0723C194.11 23.0723 195.218 23.6465 195.231 24.6445C195.218 25.5674 194.343 26.1348 192.921 26.2441V26.9688C194.056 26.9141 195.204 26.8252 196.271 26.668L196.366 27.3926C193.741 27.8164 190.815 27.8438 188.683 27.8438L188.56 27.0371ZM195.901 21.8828V22.6621H188.86V21.8828H191.854V20.8438H192.921V21.8828H195.901ZM192.374 23.7832C191.253 23.7969 190.556 24.1113 190.556 24.6445C190.556 25.1914 191.253 25.5469 192.374 25.5469C193.495 25.5469 194.206 25.1914 194.206 24.6445C194.206 24.1113 193.495 23.7969 192.374 23.7832ZM211.802 26.9688V27.8301H200.714V26.9688H205.731V25.5469H202.122V21.5273H210.421V22.3887H203.175V24.6719H210.503V25.5469H206.771V26.9688H211.802ZM206.251 28.7188C208.862 28.7188 210.421 29.5117 210.435 30.9062C210.421 32.3145 208.862 33.0938 206.251 33.1074C203.626 33.0938 202.054 32.3145 202.054 30.9062C202.054 29.5117 203.626 28.7188 206.251 28.7188ZM206.251 29.5664C204.296 29.5664 203.134 30.0723 203.147 30.9062C203.134 31.7539 204.296 32.2461 206.251 32.2461C208.179 32.2461 209.354 31.7539 209.354 30.9062C209.354 30.0723 208.179 29.5664 206.251 29.5664ZM218.351 21.1719C221.058 21.1719 222.644 21.9102 222.644 23.2637C222.644 24.6445 221.058 25.3828 218.351 25.3965C215.644 25.3828 214.044 24.6445 214.044 23.2637C214.044 21.9102 215.644 21.1719 218.351 21.1719ZM218.351 21.9785C216.327 21.9785 215.151 22.4707 215.165 23.2637C215.151 24.1113 216.327 24.5762 218.351 24.5762C220.36 24.5762 221.55 24.1113 221.55 23.2637C221.55 22.4707 220.36 21.9785 218.351 21.9785ZM223.888 26.2168V27.0918H212.813V26.2168H223.888ZM222.466 28.1445V30.8652H215.247V32.123H222.835V32.9707H214.181V30.0723H221.413V28.9648H214.153V28.1445H222.466ZM232.474 24.918C232.474 26.8594 233.745 28.8555 235.509 29.7031L234.88 30.5371C233.54 29.8809 232.48 28.5547 231.981 26.9824C231.448 28.6709 230.32 30.0859 228.933 30.7559L228.317 29.9219C230.095 29.0879 231.421 27.0098 231.435 24.918V23.9473H228.646V23.0723H231.421V21.1855H232.501V23.0723H235.235V23.9473H232.474V24.918ZM237.833 20.9531V25.9434H239.87V26.8594H237.833V33.1074H236.767V20.9531H237.833ZM251.601 26.7363V27.625H240.54V26.7363H245.12V24.2754H246.173V26.7363H251.601ZM250.192 29.0195V33.1074H249.099V29.9082H241.716V29.0195H250.192ZM250.192 21.623V22.5391C250.192 23.4688 250.192 24.5215 249.892 25.9023L248.812 25.793C249.126 24.4258 249.126 23.4551 249.126 22.5391V22.498H241.853V21.623H250.192ZM256.673 24.918C256.673 26.8594 257.944 28.8555 259.708 29.7031L259.079 30.5371C257.739 29.8809 256.68 28.5547 256.181 26.9824C255.647 28.6709 254.52 30.0859 253.132 30.7559L252.517 29.9219C254.294 29.0879 255.62 27.0098 255.634 24.918V23.9473H252.845V23.0723H255.62V21.1855H256.7V23.0723H259.435V23.9473H256.673V24.918ZM262.032 20.9531V25.9434H264.069V26.8594H262.032V33.1074H260.966V20.9531H262.032ZM275.8 26.7363V27.625H264.739V26.7363H269.319V24.2754H270.372V26.7363H275.8ZM274.392 29.0195V33.1074H273.298V29.9082H265.915V29.0195H274.392ZM274.392 21.623V22.5391C274.392 23.4688 274.392 24.5215 274.091 25.9023L273.011 25.793C273.325 24.4258 273.325 23.4551 273.325 22.5391V22.498H266.052V21.623H274.392ZM278.794 22.1016L278.698 29.2109H277.55L277.454 22.1016H278.794ZM278.124 32.082C277.646 32.082 277.235 31.6855 277.249 31.1934C277.235 30.7148 277.646 30.3184 278.124 30.3184C278.603 30.3184 278.999 30.7148 278.999 31.1934C278.999 31.6855 278.603 32.082 278.124 32.082Z" fill="#424242"/>
</g>
</g>
<defs>
<filter id="filter0_d_7776_2531" x="0" y="0" width="316" height="56" filterUnits="userSpaceOnUse" color-interpolation-filters="sRGB">
<feFlood flood-opacity="0" result="BackgroundImageFix"/>
<feColorMatrix in="SourceAlpha" type="matrix" values="0 0 0 0 0 0 0 0 0 0 0 0 0 0 0 0 0 0 127 0" result="hardAlpha"/>
<feOffset dy="1"/>
<feGaussianBlur stdDeviation="4"/>
<feComposite in2="hardAlpha" operator="out"/>
<feColorMatrix type="matrix" values="0 0 0 0 1 0 0 0 0 1 0 0 0 0 1 0 0 0 0.5 0"/>
<feBlend mode="normal" in2="BackgroundImageFix" result="effect1_dropShadow_7776_2531"/>
<feBlend mode="normal" in="SourceGraphic" in2="effect1_dropShadow_7776_2531" result="shape"/>
</filter>
<filter id="filter1_d_7776_2531" x="49.7812" y="17.7617" width="233.219" height="20.373" filterUnits="userSpaceOnUse" color-interpolation-filters="sRGB">
<feFlood flood-opacity="0" result="BackgroundImageFix"/>
<feColorMatrix in="SourceAlpha" type="matrix" values="0 0 0 0 0 0 0 0 0 0 0 0 0 0 0 0 0 0 127 0" result="hardAlpha"/>
<feOffset dy="1"/>
<feGaussianBlur stdDeviation="2"/>
<feComposite in2="hardAlpha" operator="out"/>
<feColorMatrix type="matrix" values="0 0 0 0 1 0 0 0 0 1 0 0 0 0 1 0 0 0 1 0"/>
<feBlend mode="normal" in2="BackgroundImageFix" result="effect1_dropShadow_7776_2531"/>
<feBlend mode="normal" in="SourceGraphic" in2="effect1_dropShadow_7776_2531" result="shape"/>
</filter>
</defs>
</svg>
