<svg width="296" height="56" viewBox="0 0 296 56" fill="none" xmlns="http://www.w3.org/2000/svg">
<g filter="url(#filter0_d_7776_2534)">
<path d="M266.961 17.3636C266.961 13.4789 268.911 10.0494 271.885 8H250.631H28C17.5066 8 9 16.5066 9 27C9 37.4934 17.5066 46 28 46H247.961C258.455 46 266.961 37.4934 266.961 27V17.3636Z" fill="white" stroke="#3AAF85" stroke-width="2"/>
<g filter="url(#filter1_d_7776_2534)">
<path d="M35.7158 21.8691V27.2422H30.0967V21.8691H35.7158ZM31.1494 22.7305V26.3672H34.6768V22.7305H31.1494ZM39.0791 20.9531V24.125H40.9111V25.0273H39.0791V28.1582H38.0127V20.9531H39.0791ZM39.0791 28.8145V33.1348H38.0127V29.6758H31.1221V28.8145H39.0791ZM47.8154 21.8691V27.2422H42.1963V21.8691H47.8154ZM43.249 22.7305V26.3672H46.7764V22.7305H43.249ZM51.1787 20.9531V24.125H53.0107V25.0273H51.1787V28.1582H50.1123V20.9531H51.1787ZM51.1787 28.8145V33.1348H50.1123V29.6758H43.2217V28.8145H51.1787ZM63.2783 20.9668V24.9727H65.1104V25.875H63.2783V30.0723H62.2119V20.9668H63.2783ZM61.0498 22.457V23.332H53.8037V22.457H56.8936V20.9668H57.96V22.457H61.0498ZM57.4268 24.002C59.1631 24.002 60.3389 24.8906 60.3525 26.2715C60.3389 27.6387 59.1631 28.5137 57.4268 28.5137C55.6768 28.5137 54.4873 27.6387 54.501 26.2715C54.4873 24.8906 55.6768 24.002 57.4268 24.002ZM57.4268 24.8496C56.2783 24.8496 55.5127 25.4102 55.5264 26.2715C55.5127 27.1328 56.2783 27.6797 57.4268 27.666C58.5615 27.6797 59.3271 27.1328 59.3408 26.2715C59.3271 25.4102 58.5615 24.8496 57.4268 24.8496ZM63.8389 31.9453V32.8477H55.6768V29.3477H56.7295V31.9453H63.8389ZM79.4111 20.9531V33.1348H78.3311V20.9531H79.4111ZM72.9443 21.8965C74.749 21.9102 76.0479 23.5508 76.0479 26.1348C76.0479 28.7188 74.749 30.3594 72.9443 30.3594C71.126 30.3594 69.8408 28.7188 69.8408 26.1348C69.8408 23.5508 71.126 21.9102 72.9443 21.8965ZM72.9443 22.8535C71.7275 22.8672 70.8799 24.1523 70.8799 26.1348C70.8799 28.1172 71.7275 29.4023 72.9443 29.4023C74.1611 29.4023 75.0088 28.1172 75.0088 26.1348C75.0088 24.1523 74.1611 22.8672 72.9443 22.8535ZM87.2588 21.7051V25.1094H83.0752V26.9961C85.3584 26.9961 86.5342 26.9619 87.9697 26.6953L88.0791 27.584C86.5615 27.8301 85.3311 27.8711 82.8701 27.8711H82.0088V24.2891H86.1924V22.5664H81.9814V21.7051H87.2588ZM91.5654 20.9668V28.4316H90.4854V26.1758H88.0654V25.2871H90.4854V23.6465H88.0654V22.7715H90.4854V20.9668H91.5654ZM91.5654 29.0879V33.1348H90.4854V29.9629H83.376V29.0879H91.5654ZM97.8682 24.2207C97.8682 26.4219 99.2764 28.6367 101.04 29.4434L100.397 30.3184C99.0166 29.6074 97.875 28.1514 97.335 26.4219C96.7949 28.2402 95.6533 29.7988 94.2725 30.5371L93.5752 29.6758C95.3525 28.8008 96.7744 26.4629 96.7744 24.2207V22.0059H97.8682V24.2207ZM103.665 20.9531V33.1348H102.599V25.9844H99.7139V25.1094H102.599V20.9531H103.665ZM109.353 21.7461C111.226 21.7598 112.579 22.9082 112.593 24.6035C112.579 26.1279 111.485 27.2148 109.899 27.4062V29.4844C111.034 29.4297 112.176 29.3477 113.235 29.2109L113.304 30.0176C110.733 30.4551 107.849 30.4824 105.716 30.4688L105.538 29.5664C106.516 29.5596 107.65 29.5527 108.819 29.5117V27.4062C107.206 27.2217 106.099 26.1348 106.112 24.6035C106.099 22.9082 107.452 21.7598 109.353 21.7461ZM109.353 22.6758C108.081 22.6758 107.151 23.4688 107.165 24.6035C107.151 25.7383 108.081 26.5312 109.353 26.5312C110.61 26.5312 111.526 25.7383 111.54 24.6035C111.526 23.4688 110.61 22.6758 109.353 22.6758ZM115.081 20.9531V25.9707H117.063V26.9004H115.081V33.1074H114.015V20.9531H115.081ZM125.417 24.6855C125.403 26.6406 126.812 28.7871 128.575 29.6211L127.96 30.4688C126.593 29.8057 125.438 28.3564 124.897 26.709C124.337 28.5 123.113 30.0723 121.753 30.7695L121.097 29.9219C122.847 29.0742 124.351 26.7637 124.364 24.6855V23.0996H121.534V22.2109H128.151V23.0996H125.417V24.6855ZM130.708 20.9531V25.875H132.745V26.791H130.708V33.1074H129.642V20.9531H130.708ZM143.45 20.9531V33.1074H142.37V20.9531H143.45ZM139.854 22.2793C139.841 25.7793 138.214 28.8691 134.14 30.8242L133.552 29.9492C136.84 28.3906 138.515 26.0596 138.761 23.1543H134.112V22.2793H139.854ZM156.63 30.6328V31.5215H145.501V30.6328H150.478V27.6523H151.53V30.6328H156.63ZM151.558 22.7168C151.558 24.7539 153.964 26.5312 156.083 26.9004L155.604 27.7891C153.752 27.4131 151.797 26.1553 151.011 24.3984C150.211 26.1484 148.27 27.4131 146.417 27.7891L145.938 26.9004C148.058 26.5312 150.437 24.7539 150.437 22.7168V21.7871H151.558V22.7168ZM167.978 20.9531V33.1074H166.925V26.75H165.243V32.5059H164.218V21.2812H165.243V25.8613H166.925V20.9531H167.978ZM162.837 22.5391C162.823 25.6289 161.743 28.5547 158.243 30.4961L157.614 29.7441C160.438 28.1719 161.606 25.9434 161.784 23.4277H158.079V22.5391H162.837ZM173.979 24.2207C173.979 26.4219 175.388 28.6367 177.151 29.4434L176.509 30.3184C175.128 29.6074 173.986 28.1514 173.446 26.4219C172.906 28.2402 171.765 29.7988 170.384 30.5371L169.687 29.6758C171.464 28.8008 172.886 26.4629 172.886 24.2207V22.0059H173.979V24.2207ZM179.776 20.9531V33.1348H178.71V25.9844H175.825V25.1094H178.71V20.9531H179.776ZM191.425 20.9531V25.9707H193.271V26.873H191.425V33.1074H190.345V20.9531H191.425ZM185.491 22.2793C185.478 25.1777 184.821 28.0215 182.62 30.3594L181.759 29.7441C183.598 27.8643 184.336 25.6016 184.479 23.1816H182.142V22.2793H185.491ZM188.827 22.2793C188.813 25.1641 188.39 28.5137 186.12 31.166L185.245 30.5645C187.146 28.418 187.72 25.7178 187.815 23.1816H185.874V22.2793H188.827ZM198.247 24.6855C198.247 26.75 199.751 28.8418 201.542 29.6211L200.94 30.4688C199.519 29.8193 198.288 28.418 197.728 26.7363C197.153 28.5205 195.93 30.0723 194.542 30.7695L193.899 29.9219C195.636 29.0879 197.153 26.791 197.167 24.6855V23.0996H194.296V22.2109H201.146V23.0996H198.247V24.6855ZM203.921 20.9531V33.1074H202.841V20.9531H203.921ZM219.015 20.9668V24.9727H220.847V25.875H219.015V30.0723H217.948V20.9668H219.015ZM216.786 22.457V23.332H209.54V22.457H212.63V20.9668H213.696V22.457H216.786ZM213.163 24.002C214.899 24.002 216.075 24.8906 216.089 26.2715C216.075 27.6387 214.899 28.5137 213.163 28.5137C211.413 28.5137 210.224 27.6387 210.237 26.2715C210.224 24.8906 211.413 24.002 213.163 24.002ZM213.163 24.8496C212.015 24.8496 211.249 25.4102 211.263 26.2715C211.249 27.1328 212.015 27.6797 213.163 27.666C214.298 27.6797 215.063 27.1328 215.077 26.2715C215.063 25.4102 214.298 24.8496 213.163 24.8496ZM219.575 31.9453V32.8477H211.413V29.3477H212.466V31.9453H219.575ZM231.688 20.9668V29.9629H230.608V25.2871H227.737V27.8848H222.228V21.7734H223.294V23.9336H226.685V21.7734H227.737V24.3848H230.608V20.9668H231.688ZM231.962 31.9453V32.8477H223.827V29.0742H224.907V31.9453H231.962ZM223.294 26.9961H226.685V24.7812H223.294V26.9961ZM244.13 20.9531V33.1074H243.091V20.9531H244.13ZM241.683 21.2129V32.4922H240.657V26.5859H239.099C238.982 28.9512 237.978 30.4277 236.474 30.4277C234.888 30.4277 233.862 28.7871 233.862 26.2031C233.862 23.6191 234.888 21.9785 236.474 21.9785C237.95 21.9785 238.948 23.4072 239.085 25.6973H240.657V21.2129H241.683ZM236.474 22.9902C235.489 22.9902 234.86 24.2207 234.874 26.2031C234.86 28.1719 235.489 29.416 236.474 29.4023C237.458 29.416 238.087 28.1719 238.087 26.2031C238.087 24.2207 237.458 22.9902 236.474 22.9902ZM247.78 22.1016L247.685 29.2109H246.536L246.44 22.1016H247.78ZM247.11 32.082C246.632 32.082 246.222 31.6855 246.235 31.1934C246.222 30.7148 246.632 30.3184 247.11 30.3184C247.589 30.3184 247.985 30.7148 247.985 31.1934C247.985 31.6855 247.589 32.082 247.11 32.082Z" fill="#424242"/>
</g>
</g>
<defs>
<filter id="filter0_d_7776_2534" x="0" y="0" width="296" height="56" filterUnits="userSpaceOnUse" color-interpolation-filters="sRGB">
<feFlood flood-opacity="0" result="BackgroundImageFix"/>
<feColorMatrix in="SourceAlpha" type="matrix" values="0 0 0 0 0 0 0 0 0 0 0 0 0 0 0 0 0 0 127 0" result="hardAlpha"/>
<feOffset dy="1"/>
<feGaussianBlur stdDeviation="4"/>
<feComposite in2="hardAlpha" operator="out"/>
<feColorMatrix type="matrix" values="0 0 0 0 1 0 0 0 0 1 0 0 0 0 1 0 0 0 0.5 0"/>
<feBlend mode="normal" in2="BackgroundImageFix" result="effect1_dropShadow_7776_2534"/>
<feBlend mode="normal" in="SourceGraphic" in2="effect1_dropShadow_7776_2534" result="shape"/>
</filter>
<filter id="filter1_d_7776_2534" x="26.0977" y="17.9531" width="225.887" height="20.1816" filterUnits="userSpaceOnUse" color-interpolation-filters="sRGB">
<feFlood flood-opacity="0" result="BackgroundImageFix"/>
<feColorMatrix in="SourceAlpha" type="matrix" values="0 0 0 0 0 0 0 0 0 0 0 0 0 0 0 0 0 0 127 0" result="hardAlpha"/>
<feOffset dy="1"/>
<feGaussianBlur stdDeviation="2"/>
<feComposite in2="hardAlpha" operator="out"/>
<feColorMatrix type="matrix" values="0 0 0 0 1 0 0 0 0 1 0 0 0 0 1 0 0 0 1 0"/>
<feBlend mode="normal" in2="BackgroundImageFix" result="effect1_dropShadow_7776_2534"/>
<feBlend mode="normal" in="SourceGraphic" in2="effect1_dropShadow_7776_2534" result="shape"/>
</filter>
</defs>
</svg>
