<svg width="101" height="102" viewBox="0 0 101 102" fill="none" xmlns="http://www.w3.org/2000/svg">
<g filter="url(#filter0_f_7328_2752)">
<path d="M77.0986 26.8597C86.19 24.2839 92.6983 35.5565 85.9218 42.142C81.8544 46.0947 82.3543 52.7646 86.9653 56.067C94.6476 61.569 89.8922 73.6857 80.5184 72.4936C74.892 71.7781 69.9889 76.3275 70.2819 81.9916C70.7702 91.4283 58.332 95.265 53.4195 87.193C50.4709 82.348 43.857 81.3511 39.6113 85.1118C32.5379 91.3772 21.7832 84.0447 25.0312 75.1712C26.9808 69.8451 23.6364 64.0526 18.0491 63.0779C8.74042 61.454 7.76769 48.474 16.7304 45.4808C22.11 43.6843 24.5537 37.458 21.8321 32.482C17.2978 24.1917 26.8395 15.3382 34.7678 20.4794C39.5266 23.5652 45.918 21.5937 48.1116 16.3634C51.7661 7.64939 64.6372 9.5894 65.5609 18.9934C66.1153 24.638 71.6417 28.4058 77.0986 26.8597Z" fill="#88D1B6"/>
</g>
<defs>
<filter id="filter0_f_7328_2752" x="0.510742" y="0.776855" width="100.286" height="100.806" filterUnits="userSpaceOnUse" color-interpolation-filters="sRGB">
<feFlood flood-opacity="0" result="BackgroundImageFix"/>
<feBlend mode="normal" in="SourceGraphic" in2="BackgroundImageFix" result="shape"/>
<feGaussianBlur stdDeviation="5" result="effect1_foregroundBlur_7328_2752"/>
</filter>
</defs>
</svg>
