<svg width="117" height="118" viewBox="0 0 117 118" fill="none" xmlns="http://www.w3.org/2000/svg">
<g filter="url(#filter0_f_7776_2537)">
<path d="M92.5638 35.3554C97.5588 33.9402 101.135 40.1336 97.4114 43.7518L86.7831 54.0806C84.5484 56.2523 84.823 59.9169 87.3564 61.7313L99.4055 70.3607C103.626 73.3836 101.014 80.0407 95.8634 79.3858L81.1613 77.5161C78.0701 77.123 75.3762 79.6225 75.5372 82.7345L76.303 97.5352C76.5712 102.72 69.7375 104.828 67.0385 100.393L59.3336 87.7326C57.7136 85.0707 54.0798 84.523 51.7472 86.5892L40.653 96.4159C36.7667 99.8582 30.8578 95.8297 32.6424 90.9544L37.7367 77.037C38.8078 74.1107 36.9704 70.9282 33.9006 70.3927L19.3006 67.8458C14.1862 66.9536 13.6518 59.8221 18.5761 58.1776L32.6334 53.4831C35.5891 52.4961 36.9316 49.0753 35.4363 46.3413L28.3247 33.3386C25.8334 28.7838 31.0758 23.9195 35.4318 26.7442L47.8667 34.8077C50.4812 36.5031 53.9928 35.4199 55.198 32.5463L60.9298 18.8791C62.9377 14.0914 70.0093 15.1573 70.5168 20.3241L71.9655 35.0736C72.2701 38.1748 75.3065 40.2449 78.3046 39.3954L92.5638 35.3554Z" fill="#88D1B6"/>
</g>
<defs>
<filter id="filter0_f_7776_2537" x="0.158203" y="0.80957" width="116.352" height="116.995" filterUnits="userSpaceOnUse" color-interpolation-filters="sRGB">
<feFlood flood-opacity="0" result="BackgroundImageFix"/>
<feBlend mode="normal" in="SourceGraphic" in2="BackgroundImageFix" result="shape"/>
<feGaussianBlur stdDeviation="7.5" result="effect1_foregroundBlur_7776_2537"/>
</filter>
</defs>
</svg>
