<svg width="7" height="13" viewBox="0 0 7 13" fill="none" xmlns="http://www.w3.org/2000/svg">
<path d="M5.6129 12.7427L0.177419 6.98021C0.112903 6.91161 0.0673117 6.83729 0.040645 6.75726C0.0135482 6.67722 0 6.59147 0 6.5C0 6.40853 0.0135482 6.32278 0.040645 6.24274C0.0673117 6.16271 0.112903 6.08839 0.177419 6.01979L5.6129 0.240105C5.76344 0.0800351 5.95161 0 6.17742 0C6.40323 0 6.59677 0.085752 6.75806 0.257256C6.91935 0.42876 7 0.628848 7 0.85752C7 1.08619 6.91935 1.28628 6.75806 1.45778L2.01613 6.5L6.75806 11.5422C6.9086 11.7023 6.98387 11.8994 6.98387 12.1336C6.98387 12.3682 6.90323 12.5712 6.74194 12.7427C6.58065 12.9142 6.39247 13 6.17742 13C5.96237 13 5.77419 12.9142 5.6129 12.7427Z" fill="black"/>
</svg>
